solid AssimpScene
 facet normal 0 0 0
  outer loop
  vertex -6.93444302e-10 -0.0168301258 0.00424999883
  vertex -6.93444302e-10 -0.0150000025 0.00608012639
  vertex -6.93444302e-10 0.0125000011 0.00675000064
  endloop
 endfacet

 facet normal 0 0 0
  outer loop
  vertex -6.93444302e-10 -0.0168301258 0.00424999883
  vertex -6.93444302e-10 0.0125000011 0.00675000064
  vertex -6.93444302e-10 0.0175000001 0.00175000145
  endloop
 endfacet

 facet normal 0 0 0
  outer loop
  vertex -6.93444302e-10 -0.0168301258 0.00424999883
  vertex -6.93444302e-10 0.0175000001 0.00175000145
  vertex -6.93444302e-10 0.0149999997 -0.00608012686
  endloop
 endfacet

 facet normal 0 0 0
  outer loop
  vertex -6.93444302e-10 -0.0168301258 0.00424999883
  vertex -6.93444302e-10 0.0149999997 -0.00608012686
  vertex -6.93444302e-10 -0.0125000011 -0.00675000111
  endloop
 endfacet

 facet normal 0 0 0
  outer loop
  vertex -6.93444302e-10 -0.0168301258 0.00424999883
  vertex -6.93444302e-10 -0.0125000011 -0.00675000111
  vertex -6.93444302e-10 -0.0150000025 -0.00608012686
  endloop
 endfacet

 facet normal 0 0 0
  outer loop
  vertex -6.93444302e-10 -0.0168301258 0.00424999883
  vertex -6.93444302e-10 -0.0150000025 -0.00608012686
  vertex -6.93444302e-10 -0.0175000001 -0.00174999842
  endloop
 endfacet

 facet normal 0 0 0
  outer loop
  vertex 0.0374426469 0.0632707179 -0.0080179479
  vertex 0.0162618533 0.0466733836 -0.00675000111
  vertex 0.0162618533 0.0466733836 0.00974999927
  endloop
 endfacet

 facet normal 0 0 0
  outer loop
  vertex 0.0374426469 0.0632707179 -0.0080179479
  vertex 0.0162618533 0.0466733836 0.00974999927
  vertex 0.0374426469 0.0632707179 0.00974999927
  endloop
 endfacet

 facet normal 0 0 0
  outer loop
  vertex 0.134181246 0.0229864214 0.00945132598
  vertex 0.0858113766 -0.0318625383 0.0137500009
  vertex 0.120658226 -0.0236615464 0.0097500002
  endloop
 endfacet

 facet normal 0 0 0
  outer loop
  vertex 0.134181246 0.0229864214 0.00945132598
  vertex 0.120658226 -0.0236615464 0.0097500002
  vertex 0.129605323 -0.000303307024 0.00974000059
  endloop
 endfacet

 facet normal 0 0 0
  outer loop
  vertex 0.0858113766 -0.0318625383 0.0137500009
  vertex 0.134181246 0.0229864214 0.00945132598
  vertex 0.126780942 0.0489763021 0.0097500002
  endloop
 endfacet

 facet normal 0 0 0
  outer loop
  vertex 0.0858113766 -0.0318625383 0.0137500009
  vertex 0.126780942 0.0489763021 0.0097500002
  vertex 0.106311381 0.0535364226 0.0117499996
  endloop
 endfacet

 facet normal 0 0 0
  outer loop
  vertex 0.0858113766 -0.0318625383 0.0137500009
  vertex 0.106311381 0.0535364226 0.0117499996
  vertex 0.0858113766 0.0388527773 0.0137500009
  endloop
 endfacet

 facet normal 0 0 0
  outer loop
  vertex 0.134181246 0.0229864214 0.00945132598
  vertex 0.129605323 -0.000303307024 0.00974000059
  vertex 0.122411378 -0.0374635831 0.00324999983
  endloop
 endfacet

 facet normal 0 0 0
  outer loop
  vertex 0.134181246 0.0229864214 0.00945132598
  vertex 0.122411378 -0.0374635831 0.00324999983
  vertex 0.122411378 -0.0374635831 -0.00374999992
  endloop
 endfacet

 facet normal 0 0 0
  outer loop
  vertex 0.134181246 0.0229864214 0.00945132598
  vertex 0.122411378 -0.0374635831 -0.00374999992
  vertex 0.134186864 0.0226864219 0.00517431414
  endloop
 endfacet

 facet normal 0 0 0
  outer loop
  vertex 0.122411378 -0.0374635831 0.00324999983
  vertex 0.129605323 -0.000303307024 0.00974000059
  vertex 0.119411379 -0.0374635831 0.00625000009
  endloop
 endfacet

 facet normal 0 0 0
  outer loop
  vertex 0.0376280174 -0.0297471303 -0.00475000078
  vertex 0.0170142055 -0.0215106178 -0.0097500002
  vertex 0.0874113813 -0.0374635831 -0.00675000064
  endloop
 endfacet

 facet normal 0 0 0
  outer loop
  vertex 0.0376280174 -0.0297471303 -0.00475000078
  vertex 0.0874113813 -0.0374635831 -0.00675000064
  vertex 0.0681570545 -0.0351302288 0.00474999985
  endloop
 endfacet

 facet normal 0 0 0
  outer loop
  vertex 0.0376280174 -0.0297471303 -0.00475000078
  vertex -6.93444302e-10 -0.0175000001 -0.00174999842
  vertex 0.0170142055 -0.0215106178 -0.0097500002
  endloop
 endfacet

 facet normal 0 0 0
  outer loop
  vertex 0.134186864 0.0226864219 0.00517431414
  vertex 0.132686868 0.0226864219 -0.0122599993
  vertex 0.128523827 0.0461331494 -0.0122499997
  endloop
 endfacet

 facet normal 0 0 0
  outer loop
  vertex 0.134186864 0.0226864219 0.00517431414
  vertex 0.128523827 0.0461331494 -0.0122499997
  vertex 0.129821673 0.0470759273 0.00475000078
  endloop
 endfacet

 facet normal 0 0 0
  outer loop
  vertex 0.106311381 0.0535364226 0.0117499996
  vertex 0.126780942 0.0489763021 0.0097500002
  vertex 0.119411379 0.0565364212 0.00625000009
  endloop
 endfacet

 facet normal 0 0 0
  outer loop
  vertex 0.106311381 0.0535364226 0.0117499996
  vertex 0.119411379 0.0565364212 0.00625000009
  vertex 0.0374426469 0.0632707179 0.00974999927
  endloop
 endfacet

 facet normal 0 0 0
  outer loop
  vertex 0.0347732753 0.0278844647 0.0137500009
  vertex 0.0162618533 0.0466733836 0.00974999927
  vertex -6.93444302e-10 0.0125000011 0.00675000064
  endloop
 endfacet

 facet normal 0 0 0
  outer loop
  vertex 0.0347732753 0.0278844647 0.0137500009
  vertex -6.93444302e-10 0.0125000011 0.00675000064
  vertex -6.93444302e-10 -0.0150000025 0.00608012639
  endloop
 endfacet

 facet normal 0 0 0
  outer loop
  vertex 0.0347732753 0.0278844647 0.0137500009
  vertex -6.93444302e-10 -0.0150000025 0.00608012639
  vertex 0.0168872047 -0.0214128587 0.00974999927
  endloop
 endfacet

 facet normal 0 0 0
  outer loop
  vertex 0.0347732753 0.0278844647 0.0137500009
  vertex 0.0168872047 -0.0214128587 0.00974999927
  vertex 0.0343783274 -0.0230266396 0.0137500009
  endloop
 endfacet

 facet normal 0 0 0
  outer loop
  vertex 0.0347732753 0.0278844647 0.0137500009
  vertex 0.0858113766 0.0388527773 0.0137500009
  vertex 0.106311381 0.0535364226 0.0117499996
  endloop
 endfacet

 facet normal 0 0 0
  outer loop
  vertex 0.0347732753 0.0278844647 0.0137500009
  vertex 0.106311381 0.0535364226 0.0117499996
  vertex 0.0374426469 0.0632707179 0.00974999927
  endloop
 endfacet

 facet normal 0 0 0
  outer loop
  vertex 0.0347732753 0.0278844647 0.0137500009
  vertex 0.0374426469 0.0632707179 0.00974999927
  vertex 0.0162618533 0.0466733836 0.00974999927
  endloop
 endfacet

 facet normal 0 0 0
  outer loop
  vertex 0.128523827 -0.000760306546 -0.0122599993
  vertex 0.119411379 -0.0374635831 -0.00675000064
  vertex 0.117838457 -0.0263963602 -0.0122499997
  endloop
 endfacet

 facet normal 0 0 0
  outer loop
  vertex 0.117838457 -0.0263963602 -0.0122499997
  vertex 0.0491510555 0.0509708114 -0.0250082333
  vertex 0.0511425324 0.0544707626 -0.0249558333
  endloop
 endfacet

 facet normal 0 0 0
  outer loop
  vertex 0.117838457 -0.0263963602 -0.0122499997
  vertex 0.0511425324 0.0544707626 -0.0249558333
  vertex 0.132686868 0.0226864219 -0.0122599993
  endloop
 endfacet

 facet normal 0 0 0
  outer loop
  vertex 0.117838457 -0.0263963602 -0.0122499997
  vertex 0.132686868 0.0226864219 -0.0122599993
  vertex 0.128523827 -0.000760306546 -0.0122599993
  endloop
 endfacet

 facet normal 0 0 0
  outer loop
  vertex 0.0376280174 -0.0297471303 0.00474999985
  vertex -6.93444302e-10 -0.0175000001 -0.00174999842
  vertex 0.0376280174 -0.0297471303 -0.00475000078
  endloop
 endfacet

 facet normal 0 0 0
  outer loop
  vertex 0.0376280174 -0.0297471303 0.00474999985
  vertex 0.0376280174 -0.0297471303 -0.00475000078
  vertex 0.0681570545 -0.0351302288 0.00474999985
  endloop
 endfacet

 facet normal 0 0 0
  outer loop
  vertex 0.122411378 -0.0374635831 -0.00374999992
  vertex 0.119411379 -0.0374635831 -0.00675000064
  vertex 0.128523827 -0.000760306546 -0.0122599993
  endloop
 endfacet

 facet normal 0 0 0
  outer loop
  vertex 0.122411378 -0.0374635831 -0.00374999992
  vertex 0.128523827 -0.000760306546 -0.0122599993
  vertex 0.132686868 0.0226864219 -0.0122599993
  endloop
 endfacet

 facet normal 0 0 0
  outer loop
  vertex 0.122411378 -0.0374635831 -0.00374999992
  vertex 0.132686868 0.0226864219 -0.0122599993
  vertex 0.134186864 0.0226864219 0.00517431414
  endloop
 endfacet

 facet normal 0 0 0
  outer loop
  vertex 0.130125731 0.0456753261 0.00929186679
  vertex 0.134181246 0.0229864214 0.00945132598
  vertex 0.134186864 0.0226864219 0.00517431414
  endloop
 endfacet

 facet normal 0 0 0
  outer loop
  vertex 0.130125731 0.0456753261 0.00929186679
  vertex 0.134186864 0.0226864219 0.00517431414
  vertex 0.129821673 0.0470759273 0.00475000078
  endloop
 endfacet

 facet normal 0 0 0
  outer loop
  vertex 0.130125731 0.0456753261 0.00929186679
  vertex 0.126780942 0.0489763021 0.0097500002
  vertex 0.134181246 0.0229864214 0.00945132598
  endloop
 endfacet

 facet normal 0 0 0
  outer loop
  vertex 0.0874113813 -0.0374635831 0.00625000009
  vertex 0.0681570545 -0.0351302288 0.00474999985
  vertex 0.0874113813 -0.0374635831 -0.00675000064
  endloop
 endfacet

 facet normal 0 0 0
  outer loop
  vertex 0.0874113813 -0.0374635831 0.00625000009
  vertex 0.0874113813 -0.0374635831 -0.00675000064
  vertex 0.119411379 -0.0374635831 -0.00675000064
  endloop
 endfacet

 facet normal 0 0 0
  outer loop
  vertex 0.0874113813 -0.0374635831 0.00625000009
  vertex 0.119411379 -0.0374635831 -0.00675000064
  vertex 0.122411378 -0.0374635831 -0.00374999992
  endloop
 endfacet

 facet normal 0 0 0
  outer loop
  vertex 0.0874113813 -0.0374635831 0.00625000009
  vertex 0.122411378 -0.0374635831 -0.00374999992
  vertex 0.122411378 -0.0374635831 0.00324999983
  endloop
 endfacet

 facet normal 0 0 0
  outer loop
  vertex 0.0874113813 -0.0374635831 0.00625000009
  vertex 0.122411378 -0.0374635831 0.00324999983
  vertex 0.119411379 -0.0374635831 0.00625000009
  endloop
 endfacet

 facet normal 0 0 0
  outer loop
  vertex -6.93444302e-10 0.0175000001 0.00175000145
  vertex -6.93444302e-10 0.0125000011 0.00675000064
  vertex 0.0162618533 0.0466733836 0.00974999927
  endloop
 endfacet

 facet normal 0 0 0
  outer loop
  vertex -6.93444302e-10 0.0175000001 0.00175000145
  vertex 0.0162618533 0.0466733836 0.00974999927
  vertex 0.0162618533 0.0466733836 -0.00675000111
  endloop
 endfacet

 facet normal 0 0 0
  outer loop
  vertex -6.93444302e-10 0.0175000001 0.00175000145
  vertex 0.0162618533 0.0466733836 -0.00675000111
  vertex -6.93444302e-10 0.0149999997 -0.00608012686
  endloop
 endfacet

 facet normal 0 0 0
  outer loop
  vertex 0.120658226 -0.0236615464 0.0097500002
  vertex 0.119411379 -0.0374635831 0.00625000009
  vertex 0.129605323 -0.000303307024 0.00974000059
  endloop
 endfacet

 facet normal 0 0 0
  outer loop
  vertex 0.128263131 0.0498892255 0.00810566265
  vertex 0.126780942 0.0489763021 0.0097500002
  vertex 0.130125731 0.0456753261 0.00929186679
  endloop
 endfacet

 facet normal 0 0 0
  outer loop
  vertex 0.128263131 0.0498892255 0.00810566265
  vertex 0.130125731 0.0456753261 0.00929186679
  vertex 0.129821673 0.0470759273 0.00475000078
  endloop
 endfacet

 facet normal 0 0 0
  outer loop
  vertex 0.128263131 0.0498892255 0.00810566265
  vertex 0.129821673 0.0470759273 0.00475000078
  vertex 0.128523827 0.0461331494 -0.0122499997
  endloop
 endfacet

 facet normal 0 0 0
  outer loop
  vertex 0.128263131 0.0498892255 0.00810566265
  vertex 0.128523827 0.0461331494 -0.0122499997
  vertex 0.126238465 0.0497692004 -0.0122499997
  endloop
 endfacet

 facet normal 0 0 0
  outer loop
  vertex 0.128263131 0.0498892255 0.00810566265
  vertex 0.126238465 0.0497692004 -0.0122499997
  vertex 0.122411378 0.0565364212 -0.00374999992
  endloop
 endfacet

 facet normal 0 0 0
  outer loop
  vertex 0.128263131 0.0498892255 0.00810566265
  vertex 0.119411379 0.0565364212 0.00625000009
  vertex 0.126780942 0.0489763021 0.0097500002
  endloop
 endfacet

 facet normal 0 0 0
  outer loop
  vertex 0.128523827 0.0461331494 -0.0122499997
  vertex 0.132686868 0.0226864219 -0.0122599993
  vertex 0.0511425324 0.0544707626 -0.0249558333
  endloop
 endfacet

 facet normal 0 0 0
  outer loop
  vertex 0.128523827 0.0461331494 -0.0122499997
  vertex 0.0511425324 0.0544707626 -0.0249558333
  vertex 0.126238465 0.0497692004 -0.0122499997
  endloop
 endfacet

 facet normal 0 0 0
  outer loop
  vertex 0.126238465 0.0497692004 -0.0122499997
  vertex 0.0511425324 0.0544707626 -0.0249558333
  vertex 0.0506117046 0.0568227656 -0.0237013865
  endloop
 endfacet

 facet normal 0 0 0
  outer loop
  vertex 0.126238465 0.0497692004 -0.0122499997
  vertex 0.0506117046 0.0568227656 -0.0237013865
  vertex 0.116586871 0.0535364226 -0.0122499997
  endloop
 endfacet

 facet normal 0 0 0
  outer loop
  vertex 0.0363783315 -0.0250266362 0.0137500009
  vertex 0.0376280174 -0.0297471303 0.00474999985
  vertex 0.0681570545 -0.0351302288 0.00474999985
  endloop
 endfacet

 facet normal 0 0 0
  outer loop
  vertex 0.0363783315 -0.0250266362 0.0137500009
  vertex 0.0681570545 -0.0351302288 0.00474999985
  vertex 0.0874113813 -0.0374635831 0.00625000009
  endloop
 endfacet

 facet normal 0 0 0
  outer loop
  vertex 0.0363783315 -0.0250266362 0.0137500009
  vertex 0.0874113813 -0.0374635831 0.00625000009
  vertex 0.0758113787 -0.0318625383 0.0137500009
  endloop
 endfacet

 facet normal 0 0 0
  outer loop
  vertex 0.0363783315 -0.0250266362 0.0137500009
  vertex 0.0758113787 -0.0318625383 0.0137500009
  vertex 0.0858113766 -0.0318625383 0.0137500009
  endloop
 endfacet

 facet normal 0 0 0
  outer loop
  vertex 0.0363783315 -0.0250266362 0.0137500009
  vertex 0.0858113766 -0.0318625383 0.0137500009
  vertex 0.0858113766 0.0388527773 0.0137500009
  endloop
 endfacet

 facet normal 0 0 0
  outer loop
  vertex 0.0363783315 -0.0250266362 0.0137500009
  vertex 0.0858113766 0.0388527773 0.0137500009
  vertex 0.0347732753 0.0278844647 0.0137500009
  endloop
 endfacet

 facet normal 0 0 0
  outer loop
  vertex 0.0363783315 -0.0250266362 0.0137500009
  vertex 0.0347732753 0.0278844647 0.0137500009
  vertex 0.0343783274 -0.0230266396 0.0137500009
  endloop
 endfacet

 facet normal 0 0 0
  outer loop
  vertex 0.0363783315 -0.0250266362 0.0137500009
  vertex 0.0343783274 -0.0230266396 0.0137500009
  vertex 0.0168872047 -0.0214128587 0.00974999927
  endloop
 endfacet

 facet normal 0 0 0
  outer loop
  vertex 0.0363783315 -0.0250266362 0.0137500009
  vertex 0.0168872047 -0.0214128587 0.00974999927
  vertex 0.0376280174 -0.0297471303 0.00474999985
  endloop
 endfacet

 facet normal 0 0 0
  outer loop
  vertex 0.0227383971 0.0440820232 -0.0127064018
  vertex -6.93444302e-10 0.0149999997 -0.00608012686
  vertex 0.0162618533 0.0466733836 -0.00675000111
  endloop
 endfacet

 facet normal 0 0 0
  outer loop
  vertex 0.122411378 0.0565364212 0.00324999983
  vertex 0.119411379 0.0565364212 0.00625000009
  vertex 0.128263131 0.0498892255 0.00810566265
  endloop
 endfacet

 facet normal 0 0 0
  outer loop
  vertex 0.122411378 0.0565364212 0.00324999983
  vertex 0.128263131 0.0498892255 0.00810566265
  vertex 0.122411378 0.0565364212 -0.00374999992
  endloop
 endfacet

 facet normal 0 0 0
  outer loop
  vertex 0.122411378 0.0565364212 0.00324999983
  vertex 0.122411378 0.0565364212 -0.00374999992
  vertex 0.0374426469 0.0632707179 -0.0080179479
  endloop
 endfacet

 facet normal 0 0 0
  outer loop
  vertex 0.122411378 0.0565364212 0.00324999983
  vertex 0.0374426469 0.0632707179 -0.0080179479
  vertex 0.0374426469 0.0632707179 0.00974999927
  endloop
 endfacet

 facet normal 0 0 0
  outer loop
  vertex 0.122411378 0.0565364212 0.00324999983
  vertex 0.0374426469 0.0632707179 0.00974999927
  vertex 0.119411379 0.0565364212 0.00625000009
  endloop
 endfacet

 facet normal 0 0 0
  outer loop
  vertex -6.93444302e-10 -0.0150000025 -0.00608012686
  vertex -6.93444302e-10 -0.0125000011 -0.00675000111
  vertex 0.0170142055 -0.0215106178 -0.0097500002
  endloop
 endfacet

 facet normal 0 0 0
  outer loop
  vertex -6.93444302e-10 -0.0150000025 -0.00608012686
  vertex 0.0170142055 -0.0215106178 -0.0097500002
  vertex -6.93444302e-10 -0.0175000001 -0.00174999842
  endloop
 endfacet

 facet normal 0 0 0
  outer loop
  vertex -6.93444302e-10 -0.0168301258 0.00424999883
  vertex 0.0168872047 -0.0214128587 0.00974999927
  vertex -6.93444302e-10 -0.0150000025 0.00608012639
  endloop
 endfacet

 facet normal 0 0 0
  outer loop
  vertex -6.93444302e-10 -0.0168301258 0.00424999883
  vertex -6.93444302e-10 -0.0175000001 -0.00174999842
  vertex 0.0376280174 -0.0297471303 0.00474999985
  endloop
 endfacet

 facet normal 0 0 0
  outer loop
  vertex -6.93444302e-10 -0.0168301258 0.00424999883
  vertex 0.0376280174 -0.0297471303 0.00474999985
  vertex 0.0168872047 -0.0214128587 0.00974999927
  endloop
 endfacet

 facet normal 0 0 0
  outer loop
  vertex 0.108186871 -0.0301635806 -0.0122499997
  vertex 0.117838457 -0.0263963602 -0.0122499997
  vertex 0.119411379 -0.0374635831 -0.00675000064
  endloop
 endfacet

 facet normal 0 0 0
  outer loop
  vertex 0.0403919742 0.061735604 -0.0127064018
  vertex 0.0162618533 0.0466733836 -0.00675000111
  vertex 0.0374426469 0.0632707179 -0.0080179479
  endloop
 endfacet

 facet normal 0 0 0
  outer loop
  vertex 0.0403919742 0.061735604 -0.0127064018
  vertex 0.0374426469 0.0632707179 -0.0080179479
  vertex 0.0527100265 0.0593412705 -0.0214771852
  endloop
 endfacet

 facet normal 0 0 0
  outer loop
  vertex 0.0878488198 -0.0344635807 0.0117499996
  vertex 0.0758113787 -0.0318625383 0.0137500009
  vertex 0.0874113813 -0.0374635831 0.00625000009
  endloop
 endfacet

 facet normal 0 0 0
  outer loop
  vertex 0.0878488198 -0.0344635807 0.0117499996
  vertex 0.0874113813 -0.0374635831 0.00625000009
  vertex 0.119411379 -0.0374635831 0.00625000009
  endloop
 endfacet

 facet normal 0 0 0
  outer loop
  vertex 0.0874113813 -0.0344635807 -0.0097500002
  vertex 0.0170142055 -0.0215106178 -0.0097500002
  vertex 0.0944113806 -0.0301635806 -0.0122499997
  endloop
 endfacet

 facet normal 0 0 0
  outer loop
  vertex 0.0874113813 -0.0344635807 -0.0097500002
  vertex 0.0944113806 -0.0301635806 -0.0122499997
  vertex 0.108186871 -0.0301635806 -0.0122499997
  endloop
 endfacet

 facet normal 0 0 0
  outer loop
  vertex 0.0874113813 -0.0344635807 -0.0097500002
  vertex 0.108186871 -0.0301635806 -0.0122499997
  vertex 0.119411379 -0.0374635831 -0.00675000064
  endloop
 endfacet

 facet normal 0 0 0
  outer loop
  vertex 0.0874113813 -0.0344635807 -0.0097500002
  vertex 0.119411379 -0.0374635831 -0.00675000064
  vertex 0.0874113813 -0.0374635831 -0.00675000064
  endloop
 endfacet

 facet normal 0 0 0
  outer loop
  vertex 0.0874113813 -0.0344635807 -0.0097500002
  vertex 0.0874113813 -0.0374635831 -0.00675000064
  vertex 0.0170142055 -0.0215106178 -0.0097500002
  endloop
 endfacet

 facet normal 0 0 0
  outer loop
  vertex 0.0984113812 -0.0343296044 0.0117499996
  vertex 0.119411379 -0.0374635831 0.00625000009
  vertex 0.120658226 -0.0236615464 0.0097500002
  endloop
 endfacet

 facet normal 0 0 0
  outer loop
  vertex 0.0984113812 -0.0343296044 0.0117499996
  vertex 0.120658226 -0.0236615464 0.0097500002
  vertex 0.0858113766 -0.0318625383 0.0137500009
  endloop
 endfacet

 facet normal 0 0 0
  outer loop
  vertex 0.0984113812 -0.0343296044 0.0117499996
  vertex 0.0858113766 -0.0318625383 0.0137500009
  vertex 0.0758113787 -0.0318625383 0.0137500009
  endloop
 endfacet

 facet normal 0 0 0
  outer loop
  vertex 0.0984113812 -0.0343296044 0.0117499996
  vertex 0.0758113787 -0.0318625383 0.0137500009
  vertex 0.0878488198 -0.0344635807 0.0117499996
  endloop
 endfacet

 facet normal 0 0 0
  outer loop
  vertex 0.0984113812 -0.0343296044 0.0117499996
  vertex 0.0878488198 -0.0344635807 0.0117499996
  vertex 0.119411379 -0.0374635831 0.00625000009
  endloop
 endfacet

 facet normal 0 0 0
  outer loop
  vertex 0.0491510555 0.0509708114 -0.0250082333
  vertex 0.0170142055 -0.0215106178 -0.0097500002
  vertex -6.93444302e-10 -0.0125000011 -0.00675000111
  endloop
 endfacet

 facet normal 0 0 0
  outer loop
  vertex 0.0491510555 0.0509708114 -0.0250082333
  vertex -6.93444302e-10 -0.0125000011 -0.00675000111
  vertex -6.93444302e-10 0.0149999997 -0.00608012686
  endloop
 endfacet

 facet normal 0 0 0
  outer loop
  vertex 0.0491510555 0.0509708114 -0.0250082333
  vertex -6.93444302e-10 0.0149999997 -0.00608012686
  vertex 0.0227383971 0.0440820232 -0.0127064018
  endloop
 endfacet

 facet normal 0 0 0
  outer loop
  vertex 0.0491510555 0.0509708114 -0.0250082333
  vertex 0.0227383971 0.0440820232 -0.0127064018
  vertex 0.0511425324 0.0544707626 -0.0249558333
  endloop
 endfacet

 facet normal 0 0 0
  outer loop
  vertex 0.0491510555 0.0509708114 -0.0250082333
  vertex 0.117838457 -0.0263963602 -0.0122499997
  vertex 0.108186871 -0.0301635806 -0.0122499997
  endloop
 endfacet

 facet normal 0 0 0
  outer loop
  vertex 0.0491510555 0.0509708114 -0.0250082333
  vertex 0.108186871 -0.0301635806 -0.0122499997
  vertex 0.0944113806 -0.0301635806 -0.0122499997
  endloop
 endfacet

 facet normal 0 0 0
  outer loop
  vertex 0.0491510555 0.0509708114 -0.0250082333
  vertex 0.0944113806 -0.0301635806 -0.0122499997
  vertex 0.0170142055 -0.0215106178 -0.0097500002
  endloop
 endfacet

 facet normal 0 0 0
  outer loop
  vertex 0.119411379 0.0565364212 -0.00675000064
  vertex 0.122411378 0.0565364212 -0.00374999992
  vertex 0.126238465 0.0497692004 -0.0122499997
  endloop
 endfacet

 facet normal 0 0 0
  outer loop
  vertex 0.119411379 0.0565364212 -0.00675000064
  vertex 0.126238465 0.0497692004 -0.0122499997
  vertex 0.116586871 0.0535364226 -0.0122499997
  endloop
 endfacet

 facet normal 0 0 0
  outer loop
  vertex 0.119411379 0.0565364212 -0.00675000064
  vertex 0.116586871 0.0535364226 -0.0122499997
  vertex 0.0527100265 0.0593412705 -0.0214771852
  endloop
 endfacet

 facet normal 0 0 0
  outer loop
  vertex 0.119411379 0.0565364212 -0.00675000064
  vertex 0.0527100265 0.0593412705 -0.0214771852
  vertex 0.0374426469 0.0632707179 -0.0080179479
  endloop
 endfacet

 facet normal 0 0 0
  outer loop
  vertex 0.119411379 0.0565364212 -0.00675000064
  vertex 0.0374426469 0.0632707179 -0.0080179479
  vertex 0.122411378 0.0565364212 -0.00374999992
  endloop
 endfacet

 facet normal 0 0 0
  outer loop
  vertex 0.0506117046 0.0568227656 -0.0237013865
  vertex 0.0511425324 0.0544707626 -0.0249558333
  vertex 0.0227383971 0.0440820232 -0.0127064018
  endloop
 endfacet

 facet normal 0 0 0
  outer loop
  vertex 0.0506117046 0.0568227656 -0.0237013865
  vertex 0.0227383971 0.0440820232 -0.0127064018
  vertex 0.0162618533 0.0466733836 -0.00675000111
  endloop
 endfacet

 facet normal 0 0 0
  outer loop
  vertex 0.0506117046 0.0568227656 -0.0237013865
  vertex 0.0162618533 0.0466733836 -0.00675000111
  vertex 0.0403919742 0.061735604 -0.0127064018
  endloop
 endfacet

 facet normal 0 0 0
  outer loop
  vertex 0.0506117046 0.0568227656 -0.0237013865
  vertex 0.0403919742 0.061735604 -0.0127064018
  vertex 0.0527100265 0.0593412705 -0.0214771852
  endloop
 endfacet

 facet normal 0 0 0
  outer loop
  vertex 0.0506117046 0.0568227656 -0.0237013865
  vertex 0.0527100265 0.0593412705 -0.0214771852
  vertex 0.116586871 0.0535364226 -0.0122499997
  endloop
 endfacet

endsolid AssimpScene
