solid AssimpScene
 facet normal 0 0 0
  outer loop
  vertex -7.30615575e-05 -0.00700206263 -0.00290488242
  vertex 0.0043463516 -0.00693633128 -0.00840488262
  vertex 0.0309269316 -0.00697697187 -0.00840488262
  endloop
 endfacet

 facet normal 0 0 0
  outer loop
  vertex -7.30615575e-05 -0.00700206263 -0.00290488242
  vertex 0.0309269316 -0.00697697187 -0.00840488262
  vertex 0.0309269316 -0.00697697187 0.00759511814
  endloop
 endfacet

 facet normal 0 0 0
  outer loop
  vertex -7.30615575e-05 -0.00700206263 -0.00290488242
  vertex 0.0309269316 -0.00697697187 0.00759511814
  vertex 0.00458783749 -0.00699828984 0.00759511814
  endloop
 endfacet

 facet normal 0 0 0
  outer loop
  vertex -7.30615575e-05 -0.00700206263 -0.00290488242
  vertex 0.00458783749 -0.00699828984 0.00759511814
  vertex -7.30615575e-05 -0.00700206263 0.00209511793
  endloop
 endfacet

 facet normal 0 0 0
  outer loop
  vertex -0.00242865179 0.00085308362 0.00559511781
  vertex 0.00458783749 -0.00699828984 0.00759511814
  vertex 0.00741719594 0.00503808074 0.00759511814
  endloop
 endfacet

 facet normal 0 0 0
  outer loop
  vertex 0.0309240967 -0.00347697246 -0.00840488262
  vertex 0.0309240967 -0.00347697246 0.00759511814
  vertex 0.0309269316 -0.00697697187 0.00759511814
  endloop
 endfacet

 facet normal 0 0 0
  outer loop
  vertex 0.0309240967 -0.00347697246 -0.00840488262
  vertex 0.0309269316 -0.00697697187 0.00759511814
  vertex 0.0309269316 -0.00697697187 -0.00840488262
  endloop
 endfacet

 facet normal 0 0 0
  outer loop
  vertex -0.00399090629 0.00269388477 0.00209511793
  vertex -0.00482035847 0.000281810964 -0.00290488242
  vertex -0.00428251969 -0.00221154443 0.00209511793
  endloop
 endfacet

 facet normal 0 0 0
  outer loop
  vertex -0.00399090629 0.00269388477 0.00209511793
  vertex -0.00428251969 -0.00221154443 0.00209511793
  vertex -0.00242865179 0.00085308362 0.00559511781
  endloop
 endfacet

 facet normal 0 0 0
  outer loop
  vertex 0.011617953 0.00504096365 0.00759511814
  vertex 0.00741719594 0.00503808074 0.00759511814
  vertex 0.00458783749 -0.00699828984 0.00759511814
  endloop
 endfacet

 facet normal 0 0 0
  outer loop
  vertex 0.011617953 0.00504096365 0.00759511814
  vertex 0.00458783749 -0.00699828984 0.00759511814
  vertex 0.0309269316 -0.00697697187 0.00759511814
  endloop
 endfacet

 facet normal 0 0 0
  outer loop
  vertex 0.011617953 0.00504096365 0.00759511814
  vertex 0.0309269316 -0.00697697187 0.00759511814
  vertex 0.0309240967 -0.00347697246 0.00759511814
  endloop
 endfacet

 facet normal 0 0 0
  outer loop
  vertex 0.011617953 0.00504096365 0.00759511814
  vertex 0.0309240967 -0.00347697246 0.00759511814
  vertex 0.0309240967 -0.00347697246 -0.00840488262
  endloop
 endfacet

 facet normal 0 0 0
  outer loop
  vertex 0.011617953 0.00504096365 0.00759511814
  vertex 0.0309240967 -0.00347697246 -0.00840488262
  vertex 0.011617953 0.00504096365 -0.00840488262
  endloop
 endfacet

 facet normal 0 0 0
  outer loop
  vertex -0.00289697526 -0.00102840678 -0.00590488221
  vertex -0.00482035847 0.000281810964 -0.00290488242
  vertex -0.00199513999 0.00160535355 -0.0064048823
  endloop
 endfacet

 facet normal 0 0 0
  outer loop
  vertex -0.00289697526 -0.00102840678 -0.00590488221
  vertex -0.00199513999 0.00160535355 -0.0064048823
  vertex 0.0043463516 -0.00693633128 -0.00840488262
  endloop
 endfacet

 facet normal 0 0 0
  outer loop
  vertex 0.0043463516 -0.00693633128 -0.00840488262
  vertex -7.30615575e-05 -0.00700206263 -0.00290488242
  vertex -0.00428251969 -0.00221154443 -0.00290488242
  endloop
 endfacet

 facet normal 0 0 0
  outer loop
  vertex 0.0043463516 -0.00693633128 -0.00840488262
  vertex -0.00428251969 -0.00221154443 -0.00290488242
  vertex -0.00289697526 -0.00102840678 -0.00590488221
  endloop
 endfacet

 facet normal 0 0 0
  outer loop
  vertex 0.00750632538 0.0050381422 -0.00840488262
  vertex 0.011617953 0.00504096365 -0.00840488262
  vertex 0.0309240967 -0.00347697246 -0.00840488262
  endloop
 endfacet

 facet normal 0 0 0
  outer loop
  vertex 0.00750632538 0.0050381422 -0.00840488262
  vertex 0.0309240967 -0.00347697246 -0.00840488262
  vertex 0.0309269316 -0.00697697187 -0.00840488262
  endloop
 endfacet

 facet normal 0 0 0
  outer loop
  vertex 0.00750632538 0.0050381422 -0.00840488262
  vertex 0.0309269316 -0.00697697187 -0.00840488262
  vertex 0.0043463516 -0.00693633128 -0.00840488262
  endloop
 endfacet

 facet normal 0 0 0
  outer loop
  vertex 0.00750632538 0.0050381422 -0.00840488262
  vertex 0.0043463516 -0.00693633128 -0.00840488262
  vertex -0.00199513999 0.00160535355 -0.0064048823
  endloop
 endfacet

 facet normal 0 0 0
  outer loop
  vertex 0.00750632538 0.0050381422 -0.00840488262
  vertex -0.00199513999 0.00160535355 -0.0064048823
  vertex -0.00380292884 0.00285096164 -0.00290488242
  endloop
 endfacet

 facet normal 0 0 0
  outer loop
  vertex 0.00750632538 0.0050381422 -0.00840488262
  vertex -0.00380292884 0.00285096164 -0.00290488242
  vertex -0.0020333454 0.00432913518 -0.00190488261
  endloop
 endfacet

 facet normal 0 0 0
  outer loop
  vertex 0.00750632538 0.0050381422 -0.00840488262
  vertex -0.0020333454 0.00432913518 -0.00190488261
  vertex -0.0020333454 0.00432913518 0.00209511793
  endloop
 endfacet

 facet normal 0 0 0
  outer loop
  vertex 0.00750632538 0.0050381422 -0.00840488262
  vertex -0.0020333454 0.00432913518 0.00209511793
  vertex 0.00741719594 0.00503808074 0.00759511814
  endloop
 endfacet

 facet normal 0 0 0
  outer loop
  vertex 0.00750632538 0.0050381422 -0.00840488262
  vertex 0.00741719594 0.00503808074 0.00759511814
  vertex 0.011617953 0.00504096365 0.00759511814
  endloop
 endfacet

 facet normal 0 0 0
  outer loop
  vertex 0.00750632538 0.0050381422 -0.00840488262
  vertex 0.011617953 0.00504096365 0.00759511814
  vertex 0.011617953 0.00504096365 -0.00840488262
  endloop
 endfacet

 facet normal 0 0 0
  outer loop
  vertex -0.0020333454 0.00432913518 0.00209511793
  vertex -0.00399090629 0.00269388477 0.00209511793
  vertex -0.00242865179 0.00085308362 0.00559511781
  endloop
 endfacet

 facet normal 0 0 0
  outer loop
  vertex -0.0020333454 0.00432913518 0.00209511793
  vertex -0.00242865179 0.00085308362 0.00559511781
  vertex 0.00741719594 0.00503808074 0.00759511814
  endloop
 endfacet

 facet normal 0 0 0
  outer loop
  vertex -0.00428251969 -0.00221154443 -0.00290488242
  vertex -0.00482035847 0.000281810964 -0.00290488242
  vertex -0.00289697526 -0.00102840678 -0.00590488221
  endloop
 endfacet

 facet normal 0 0 0
  outer loop
  vertex -0.00428251969 -0.00221154443 -0.00290488242
  vertex -7.30615575e-05 -0.00700206263 -0.00290488242
  vertex -7.30615575e-05 -0.00700206263 0.00209511793
  endloop
 endfacet

 facet normal 0 0 0
  outer loop
  vertex -0.00428251969 -0.00221154443 -0.00290488242
  vertex -7.30615575e-05 -0.00700206263 0.00209511793
  vertex -0.00428251969 -0.00221154443 0.00209511793
  endloop
 endfacet

 facet normal 0 0 0
  outer loop
  vertex -0.00428251969 -0.00221154443 -0.00290488242
  vertex -0.00428251969 -0.00221154443 0.00209511793
  vertex -0.00482035847 0.000281810964 -0.00290488242
  endloop
 endfacet

 facet normal 0 0 0
  outer loop
  vertex -0.00380292884 0.00285096164 -0.00290488242
  vertex -0.00199513999 0.00160535355 -0.0064048823
  vertex -0.00482035847 0.000281810964 -0.00290488242
  endloop
 endfacet

 facet normal 0 0 0
  outer loop
  vertex -0.00380292884 0.00285096164 -0.00290488242
  vertex -0.00482035847 0.000281810964 -0.00290488242
  vertex -0.00399090629 0.00269388477 0.00209511793
  endloop
 endfacet

 facet normal 0 0 0
  outer loop
  vertex -0.00380292884 0.00285096164 -0.00290488242
  vertex -0.00399090629 0.00269388477 0.00209511793
  vertex -0.0020333454 0.00432913518 0.00209511793
  endloop
 endfacet

 facet normal 0 0 0
  outer loop
  vertex -0.00380292884 0.00285096164 -0.00290488242
  vertex -0.0020333454 0.00432913518 0.00209511793
  vertex -0.0020333454 0.00432913518 -0.00190488261
  endloop
 endfacet

 facet normal 0 0 0
  outer loop
  vertex -0.00237530051 -0.00193028711 0.00509511773
  vertex -0.00242865179 0.00085308362 0.00559511781
  vertex -0.00428251969 -0.00221154443 0.00209511793
  endloop
 endfacet

 facet normal 0 0 0
  outer loop
  vertex -0.00237530051 -0.00193028711 0.00509511773
  vertex -0.00428251969 -0.00221154443 0.00209511793
  vertex -7.30615575e-05 -0.00700206263 0.00209511793
  endloop
 endfacet

 facet normal 0 0 0
  outer loop
  vertex -0.00237530051 -0.00193028711 0.00509511773
  vertex -7.30615575e-05 -0.00700206263 0.00209511793
  vertex 0.00458783749 -0.00699828984 0.00759511814
  endloop
 endfacet

 facet normal 0 0 0
  outer loop
  vertex -0.00237530051 -0.00193028711 0.00509511773
  vertex 0.00458783749 -0.00699828984 0.00759511814
  vertex -0.00242865179 0.00085308362 0.00559511781
  endloop
 endfacet

endsolid AssimpScene
