solid AssimpScene
 facet normal 0 0 0
  outer loop
  vertex 0.0129012708 -0.00479488214 0.00599510921
  vertex 0.0129012708 0.00480511785 0.00599510921
  vertex 0.000176031477 0.00278011779 0.00949510932
  endloop
 endfacet

 facet normal 0 0 0
  outer loop
  vertex 0.0129012708 -0.00479488214 0.00599510921
  vertex 0.000176031477 0.00278011779 0.00949510932
  vertex 0.00107707211 -0.00261952495 0.00949510932
  endloop
 endfacet

 facet normal 0 0 0
  outer loop
  vertex -0.000280718901 -0.00273203524 -0.0115048904
  vertex 0.0124404058 -0.00884488225 -0.00425174646
  vertex -0.00142396858 -0.00479488214 -0.00608993508
  endloop
 endfacet

 facet normal 0 0 0
  outer loop
  vertex 0.0129012708 -0.00479488214 0.00599510921
  vertex 0.00107707211 -0.00261952495 0.00949510932
  vertex 0.0147439092 -0.00864488259 0.000877486775
  endloop
 endfacet

 facet normal 0 0 0
  outer loop
  vertex -0.000280718901 0.00274227001 -0.0115048904
  vertex -0.000280718901 -0.00273203524 -0.0115048904
  vertex -0.00231453939 -0.00162205356 -0.0113048917
  endloop
 endfacet

 facet normal 0 0 0
  outer loop
  vertex -0.000280718901 0.00274227001 -0.0115048904
  vertex -0.00231453939 -0.00162205356 -0.0113048917
  vertex -0.0027888082 0.000250791112 -0.0113048917
  endloop
 endfacet

 facet normal 0 0 0
  outer loop
  vertex -0.00142396858 -0.00479488214 0.00599510921
  vertex 0.00107707211 -0.00261952495 0.00949510932
  vertex -0.00270793494 -0.000725201913 0.00929510966
  endloop
 endfacet

 facet normal 0 0 0
  outer loop
  vertex -0.00142396858 -0.00479488214 0.00599510921
  vertex 0.0147439092 -0.00864488259 0.000877486775
  vertex 0.00107707211 -0.00261952495 0.00949510932
  endloop
 endfacet

 facet normal 0 0 0
  outer loop
  vertex 0.0156485904 -0.00864488259 -0.00269502122
  vertex 0.0155620622 -0.00149488228 -0.00511901081
  vertex 0.0169796124 0.0027551176 -0.0033918093
  endloop
 endfacet

 facet normal 0 0 0
  outer loop
  vertex 0.0156485904 -0.00864488259 -0.00269502122
  vertex 0.0169796124 0.0027551176 -0.0033918093
  vertex 0.0173916407 -0.00149488228 -0.00119569676
  endloop
 endfacet

 facet normal 0 0 0
  outer loop
  vertex 0.000176031477 0.00278011779 0.00949510932
  vertex -0.00270793494 -0.000725201913 0.00929510966
  vertex 0.00107707211 -0.00261952495 0.00949510932
  endloop
 endfacet

 facet normal 0 0 0
  outer loop
  vertex 0.000176031477 0.00278011779 0.00949510932
  vertex 0.0129012708 0.00480511785 0.00599510921
  vertex 0.0133621357 0.0083551174 0.00127187662
  endloop
 endfacet

 facet normal 0 0 0
  outer loop
  vertex 0.000176031477 0.00278011779 0.00949510932
  vertex 0.0133621357 0.0083551174 0.00127187662
  vertex -0.00142396858 0.00480511785 0.00599510921
  endloop
 endfacet

 facet normal 0 0 0
  outer loop
  vertex -0.00243047881 0.0038496023 -0.00608993508
  vertex -0.000280718901 0.00274227001 -0.0115048904
  vertex -0.0027888082 0.000250791112 -0.0113048917
  endloop
 endfacet

 facet normal 0 0 0
  outer loop
  vertex -0.00243047881 0.0038496023 -0.00608993508
  vertex -0.0027888082 0.000250791112 -0.0113048917
  vertex -0.00382396835 3.74244701e-06 0.000110064102
  endloop
 endfacet

 facet normal 0 0 0
  outer loop
  vertex 0.0158910248 0.00815511774 -0.00124219712
  vertex 0.0133621357 0.0083551174 0.00127187662
  vertex 0.0129012708 0.00480511785 0.00599510921
  endloop
 endfacet

 facet normal 0 0 0
  outer loop
  vertex 0.0158910248 0.00815511774 -0.00124219712
  vertex 0.0129012708 0.00480511785 0.00599510921
  vertex 0.0171641111 0.00480511785 -4.83410658e-05
  endloop
 endfacet

 facet normal 0 0 0
  outer loop
  vertex 0.00294155325 0.000234275052 -0.0115048904
  vertex -0.000280718901 0.00274227001 -0.0115048904
  vertex 0.0147439092 0.00815511774 -0.0038573565
  endloop
 endfacet

 facet normal 0 0 0
  outer loop
  vertex 0.00294155325 0.000234275052 -0.0115048904
  vertex 0.0147439092 0.00815511774 -0.0038573565
  vertex 0.0155620622 -0.00149488228 -0.00511901081
  endloop
 endfacet

 facet normal 0 0 0
  outer loop
  vertex 0.00294155325 0.000234275052 -0.0115048904
  vertex 0.0155620622 -0.00149488228 -0.00511901081
  vertex 0.0156485904 -0.00864488259 -0.00269502122
  endloop
 endfacet

 facet normal 0 0 0
  outer loop
  vertex 0.00294155325 0.000234275052 -0.0115048904
  vertex 0.0156485904 -0.00864488259 -0.00269502122
  vertex 0.0124404058 -0.00884488225 -0.00425174646
  endloop
 endfacet

 facet normal 0 0 0
  outer loop
  vertex 0.00294155325 0.000234275052 -0.0115048904
  vertex 0.0124404058 -0.00884488225 -0.00425174646
  vertex -0.000280718901 -0.00273203524 -0.0115048904
  endloop
 endfacet

 facet normal 0 0 0
  outer loop
  vertex 0.00294155325 0.000234275052 -0.0115048904
  vertex -0.000280718901 -0.00273203524 -0.0115048904
  vertex -0.000280718901 0.00274227001 -0.0115048904
  endloop
 endfacet

 facet normal 0 0 0
  outer loop
  vertex -0.00366346235 0.0013836351 0.00599510921
  vertex -0.00142396858 0.00480511785 0.00599510921
  vertex -0.00243047881 0.0038496023 -0.00608993508
  endloop
 endfacet

 facet normal 0 0 0
  outer loop
  vertex -0.00366346235 0.0013836351 0.00599510921
  vertex -0.00243047881 0.0038496023 -0.00608993508
  vertex -0.00382396835 3.74244701e-06 0.000110064102
  endloop
 endfacet

 facet normal 0 0 0
  outer loop
  vertex 0.0101869507 0.0083551174 -0.00217729434
  vertex 0.0147439092 0.00815511774 -0.0038573565
  vertex -0.000280718901 0.00274227001 -0.0115048904
  endloop
 endfacet

 facet normal 0 0 0
  outer loop
  vertex 0.0101869507 0.0083551174 -0.00217729434
  vertex -0.000280718901 0.00274227001 -0.0115048904
  vertex -0.00243047881 0.0038496023 -0.00608993508
  endloop
 endfacet

 facet normal 0 0 0
  outer loop
  vertex 0.0101869507 0.0083551174 -0.00217729434
  vertex -0.00243047881 0.0038496023 -0.00608993508
  vertex -0.00142396858 0.00480511785 0.00599510921
  endloop
 endfacet

 facet normal 0 0 0
  outer loop
  vertex 0.0101869507 0.0083551174 -0.00217729434
  vertex -0.00142396858 0.00480511785 0.00599510921
  vertex 0.0133621357 0.0083551174 0.00127187662
  endloop
 endfacet

 facet normal 0 0 0
  outer loop
  vertex 0.0101869507 0.0083551174 -0.00217729434
  vertex 0.0133621357 0.0083551174 0.00127187662
  vertex 0.0158910248 0.00815511774 -0.00124219712
  endloop
 endfacet

 facet normal 0 0 0
  outer loop
  vertex 0.0101869507 0.0083551174 -0.00217729434
  vertex 0.0158910248 0.00815511774 -0.00124219712
  vertex 0.0147439092 0.00815511774 -0.0038573565
  endloop
 endfacet

 facet normal 0 0 0
  outer loop
  vertex 0.0169796124 0.0027551176 -0.0033918093
  vertex 0.0147439092 0.00815511774 -0.0038573565
  vertex 0.0158910248 0.00815511774 -0.00124219712
  endloop
 endfacet

 facet normal 0 0 0
  outer loop
  vertex 0.0169796124 0.0027551176 -0.0033918093
  vertex 0.0158910248 0.00815511774 -0.00124219712
  vertex 0.0171641111 0.00480511785 -4.83410658e-05
  endloop
 endfacet

 facet normal 0 0 0
  outer loop
  vertex 0.0169796124 0.0027551176 -0.0033918093
  vertex 0.0171641111 0.00480511785 -4.83410658e-05
  vertex 0.0173916407 -0.00149488228 -0.00119569676
  endloop
 endfacet

 facet normal 0 0 0
  outer loop
  vertex 0.0169796124 0.0027551176 -0.0033918093
  vertex 0.0155620622 -0.00149488228 -0.00511901081
  vertex 0.0147439092 0.00815511774 -0.0038573565
  endloop
 endfacet

 facet normal 0 0 0
  outer loop
  vertex 0.0166965593 -0.00479488214 0.000927870395
  vertex 0.0173916407 -0.00149488228 -0.00119569676
  vertex 0.0171641111 0.00480511785 -4.83410658e-05
  endloop
 endfacet

 facet normal 0 0 0
  outer loop
  vertex 0.0171641111 0.00480511785 -4.83410658e-05
  vertex 0.0129012708 0.00480511785 0.00599510921
  vertex 0.0129012708 -0.00479488214 0.00599510921
  endloop
 endfacet

 facet normal 0 0 0
  outer loop
  vertex 0.0171641111 0.00480511785 -4.83410658e-05
  vertex 0.0129012708 -0.00479488214 0.00599510921
  vertex 0.0166965593 -0.00479488214 0.000927870395
  endloop
 endfacet

 facet normal 0 0 0
  outer loop
  vertex 0.0166965593 -0.00479488214 0.000927870395
  vertex 0.0129012708 -0.00479488214 0.00599510921
  vertex 0.0147439092 -0.00864488259 0.000877486775
  endloop
 endfacet

 facet normal 0 0 0
  outer loop
  vertex 0.0166965593 -0.00479488214 0.000927870395
  vertex 0.0147439092 -0.00864488259 0.000877486775
  vertex 0.0156485904 -0.00864488259 -0.00269502122
  endloop
 endfacet

 facet normal 0 0 0
  outer loop
  vertex 0.0166965593 -0.00479488214 0.000927870395
  vertex 0.0156485904 -0.00864488259 -0.00269502122
  vertex 0.0173916407 -0.00149488228 -0.00119569676
  endloop
 endfacet

 facet normal 0 0 0
  outer loop
  vertex -0.00201274711 0.00202003028 0.00929510966
  vertex -0.00270793494 -0.000725201913 0.00929510966
  vertex 0.000176031477 0.00278011779 0.00949510932
  endloop
 endfacet

 facet normal 0 0 0
  outer loop
  vertex -0.00201274711 0.00202003028 0.00929510966
  vertex 0.000176031477 0.00278011779 0.00949510932
  vertex -0.00142396858 0.00480511785 0.00599510921
  endloop
 endfacet

 facet normal 0 0 0
  outer loop
  vertex -0.00201274711 0.00202003028 0.00929510966
  vertex -0.00142396858 0.00480511785 0.00599510921
  vertex -0.00366346235 0.0013836351 0.00599510921
  endloop
 endfacet

 facet normal 0 0 0
  outer loop
  vertex -0.00201274711 0.00202003028 0.00929510966
  vertex -0.00366346235 0.0013836351 0.00599510921
  vertex -0.00270793494 -0.000725201913 0.00929510966
  endloop
 endfacet

 facet normal 0 0 0
  outer loop
  vertex 0.0105572045 -0.00884488225 4.15199211e-05
  vertex 0.0147439092 -0.00864488259 0.000877486775
  vertex -0.00142396858 -0.00479488214 0.00599510921
  endloop
 endfacet

 facet normal 0 0 0
  outer loop
  vertex 0.0105572045 -0.00884488225 4.15199211e-05
  vertex -0.00142396858 -0.00479488214 0.00599510921
  vertex -0.00142396858 -0.00479488214 -0.00608993508
  endloop
 endfacet

 facet normal 0 0 0
  outer loop
  vertex 0.0105572045 -0.00884488225 4.15199211e-05
  vertex -0.00142396858 -0.00479488214 -0.00608993508
  vertex 0.0124404058 -0.00884488225 -0.00425174646
  endloop
 endfacet

 facet normal 0 0 0
  outer loop
  vertex 0.0105572045 -0.00884488225 4.15199211e-05
  vertex 0.0124404058 -0.00884488225 -0.00425174646
  vertex 0.0156485904 -0.00864488259 -0.00269502122
  endloop
 endfacet

 facet normal 0 0 0
  outer loop
  vertex 0.0105572045 -0.00884488225 4.15199211e-05
  vertex 0.0156485904 -0.00864488259 -0.00269502122
  vertex 0.0147439092 -0.00864488259 0.000877486775
  endloop
 endfacet

 facet normal 0 0 0
  outer loop
  vertex -0.00319053209 -0.00267816382 0.00599510921
  vertex -0.00142396858 -0.00479488214 0.00599510921
  vertex -0.00270793494 -0.000725201913 0.00929510966
  endloop
 endfacet

 facet normal 0 0 0
  outer loop
  vertex -0.00319053209 -0.00267816382 0.00599510921
  vertex -0.00270793494 -0.000725201913 0.00929510966
  vertex -0.00366346235 0.0013836351 0.00599510921
  endloop
 endfacet

 facet normal 0 0 0
  outer loop
  vertex -0.00319053209 -0.00267816382 0.00599510921
  vertex -0.00366346235 0.0013836351 0.00599510921
  vertex -0.00382396835 3.74244701e-06 0.000110064102
  endloop
 endfacet

 facet normal 0 0 0
  outer loop
  vertex -0.00289391703 -0.00320356223 -0.00608993508
  vertex -0.00382396835 3.74244701e-06 0.000110064102
  vertex -0.0027888082 0.000250791112 -0.0113048917
  endloop
 endfacet

 facet normal 0 0 0
  outer loop
  vertex -0.00289391703 -0.00320356223 -0.00608993508
  vertex -0.00142396858 -0.00479488214 -0.00608993508
  vertex -0.00142396858 -0.00479488214 0.00599510921
  endloop
 endfacet

 facet normal 0 0 0
  outer loop
  vertex -0.00289391703 -0.00320356223 -0.00608993508
  vertex -0.00142396858 -0.00479488214 0.00599510921
  vertex -0.00319053209 -0.00267816382 0.00599510921
  endloop
 endfacet

 facet normal 0 0 0
  outer loop
  vertex -0.00289391703 -0.00320356223 -0.00608993508
  vertex -0.00319053209 -0.00267816382 0.00599510921
  vertex -0.00382396835 3.74244701e-06 0.000110064102
  endloop
 endfacet

 facet normal 0 0 0
  outer loop
  vertex -0.00231453939 -0.00162205356 -0.0113048917
  vertex -0.000280718901 -0.00273203524 -0.0115048904
  vertex -0.00142396858 -0.00479488214 -0.00608993508
  endloop
 endfacet

 facet normal 0 0 0
  outer loop
  vertex -0.00231453939 -0.00162205356 -0.0113048917
  vertex -0.00142396858 -0.00479488214 -0.00608993508
  vertex -0.00289391703 -0.00320356223 -0.00608993508
  endloop
 endfacet

 facet normal 0 0 0
  outer loop
  vertex -0.00231453939 -0.00162205356 -0.0113048917
  vertex -0.00289391703 -0.00320356223 -0.00608993508
  vertex -0.0027888082 0.000250791112 -0.0113048917
  endloop
 endfacet

endsolid AssimpScene
