solid AssimpScene
 facet normal 0 0 0
  outer loop
  vertex -0.00448948471 0.00524048647 0.00759511814
  vertex -0.00639297394 0.00248446269 0.00759511814
  vertex -0.00639523147 -0.00247862935 0.00759511814
  endloop
 endfacet

 facet normal 0 0 0
  outer loop
  vertex -0.00448948471 0.00524048647 0.00759511814
  vertex -0.00639523147 -0.00247862935 0.00759511814
  vertex -0.00449425634 -0.00523638586 0.00759511814
  endloop
 endfacet

 facet normal 0 0 0
  outer loop
  vertex -0.00448948471 0.00524048647 0.00759511814
  vertex -0.00449425634 -0.00523638586 0.00759511814
  vertex 0.000144893522 -0.00700260745 0.00759511814
  endloop
 endfacet

 facet normal 0 0 0
  outer loop
  vertex -0.00448948471 0.00524048647 0.00759511814
  vertex 0.000144893522 -0.00700260745 0.00759511814
  vertex 0.0293747988 -0.00689230487 0.00759511814
  endloop
 endfacet

 facet normal 0 0 0
  outer loop
  vertex -0.00448948471 0.00524048647 0.00759511814
  vertex 0.0293747988 -0.00689230487 0.00759511814
  vertex 0.0337084457 -0.00425656466 0.00759511814
  endloop
 endfacet

 facet normal 0 0 0
  outer loop
  vertex -0.00448948471 0.00524048647 0.00759511814
  vertex 0.0337084457 -0.00425656466 0.00759511814
  vertex 0.0351242796 0.000614066841 0.00759511814
  endloop
 endfacet

 facet normal 0 0 0
  outer loop
  vertex -0.00448948471 0.00524048647 0.00759511814
  vertex 0.0351242796 0.000614066841 0.00759511814
  vertex 0.0328789055 0.00516224606 0.00759511814
  endloop
 endfacet

 facet normal 0 0 0
  outer loop
  vertex -0.00448948471 0.00524048647 0.00759511814
  vertex 0.0328789055 0.00516224606 0.00759511814
  vertex 0.0298638213 0.00678721536 0.00759511814
  endloop
 endfacet

 facet normal 0 0 0
  outer loop
  vertex -0.00448948471 0.00524048647 0.00759511814
  vertex 0.0298638213 0.00678721536 0.00759511814
  vertex -0.00152346061 0.00679664547 0.00759511814
  endloop
 endfacet

 facet normal 0 0 0
  outer loop
  vertex 0.0298638213 0.00678721536 0.00759511814
  vertex 0.0281512737 0.00699993083 -0.00840488262
  vertex 0.000151272805 0.00699993502 -0.00840488262
  endloop
 endfacet

 facet normal 0 0 0
  outer loop
  vertex 0.0298638213 0.00678721536 0.00759511814
  vertex 0.000151272805 0.00699993502 -0.00840488262
  vertex -0.00152346061 0.00679664547 0.00759511814
  endloop
 endfacet

 facet normal 0 0 0
  outer loop
  vertex -0.00663710153 -0.00170827459 -0.00840488262
  vertex -0.00639523147 -0.00247862935 0.00759511814
  vertex -0.00684873015 1.87184503e-06 -0.00290488242
  endloop
 endfacet

 facet normal 0 0 0
  outer loop
  vertex -0.00639297394 0.00248446269 0.00759511814
  vertex -0.00684873015 1.87184503e-06 -0.00290488242
  vertex -0.00639523147 -0.00247862935 0.00759511814
  endloop
 endfacet

 facet normal 0 0 0
  outer loop
  vertex 0.0328789055 0.0051622428 -0.00840488262
  vertex 0.0281512737 0.00699993083 -0.00840488262
  vertex 0.0298638213 0.00678721536 0.00759511814
  endloop
 endfacet

 facet normal 0 0 0
  outer loop
  vertex 0.000651579991 -0.0100026075 -0.00317283161
  vertex 0.0276515819 -0.0100026075 -0.00317283161
  vertex 0.0276515819 -0.0100026075 0.00411306694
  endloop
 endfacet

 facet normal 0 0 0
  outer loop
  vertex 0.000651579991 -0.0100026075 -0.00317283161
  vertex 0.0276515819 -0.0100026075 0.00411306694
  vertex 0.000651579991 -0.0100026075 0.00411306694
  endloop
 endfacet

 facet normal 0 0 0
  outer loop
  vertex 0.000144893522 -0.00700260745 0.00759511814
  vertex 0.000651579991 -0.0100026075 0.00411306694
  vertex 0.0276515819 -0.0100026075 0.00411306694
  endloop
 endfacet

 facet normal 0 0 0
  outer loop
  vertex 0.000144893522 -0.00700260745 0.00759511814
  vertex 0.0276515819 -0.0100026075 0.00411306694
  vertex 0.0293747988 -0.00689230487 0.00759511814
  endloop
 endfacet

 facet normal 0 0 0
  outer loop
  vertex 0.0337084457 -0.00425656466 0.00759511814
  vertex 0.0293747988 -0.00689230487 0.00759511814
  vertex 0.0276515819 -0.0100026075 0.00411306694
  endloop
 endfacet

 facet normal 0 0 0
  outer loop
  vertex 0.0310238022 -0.00638352055 -0.00840488262
  vertex 0.0345809199 -0.0027676532 -0.00840488262
  vertex 0.0337084457 -0.00425656466 0.00759511814
  endloop
 endfacet

 facet normal 0 0 0
  outer loop
  vertex 0.0310238022 -0.00638352055 -0.00840488262
  vertex 0.0337084457 -0.00425656466 0.00759511814
  vertex 0.0276515819 -0.0100026075 0.00411306694
  endloop
 endfacet

 facet normal 0 0 0
  outer loop
  vertex 0.0310238022 -0.00638352055 -0.00840488262
  vertex 0.0276515819 -0.0100026075 0.00411306694
  vertex 0.0276515819 -0.0100026075 -0.00317283161
  endloop
 endfacet

 facet normal 0 0 0
  outer loop
  vertex 0.0345809199 -0.0027676532 -0.00840488262
  vertex 0.0351242758 0.000614066317 -0.00840488262
  vertex 0.0351242796 0.000614066841 0.00759511814
  endloop
 endfacet

 facet normal 0 0 0
  outer loop
  vertex 0.0345809199 -0.0027676532 -0.00840488262
  vertex 0.0351242796 0.000614066841 0.00759511814
  vertex 0.0337084457 -0.00425656466 0.00759511814
  endloop
 endfacet

 facet normal 0 0 0
  outer loop
  vertex 0.0328789055 0.00516224606 0.00759511814
  vertex 0.0351242796 0.000614066841 0.00759511814
  vertex 0.0351242758 0.000614066317 -0.00840488262
  endloop
 endfacet

 facet normal 0 0 0
  outer loop
  vertex 0.0328789055 0.00516224606 0.00759511814
  vertex 0.0351242758 0.000614066317 -0.00840488262
  vertex 0.0328789055 0.0051622428 -0.00840488262
  endloop
 endfacet

 facet normal 0 0 0
  outer loop
  vertex 0.0328789055 0.00516224606 0.00759511814
  vertex 0.0328789055 0.0051622428 -0.00840488262
  vertex 0.0298638213 0.00678721536 0.00759511814
  endloop
 endfacet

 facet normal 0 0 0
  outer loop
  vertex -0.00601226976 0.00331818545 -0.00840488262
  vertex -0.00663710153 -0.00170827459 -0.00840488262
  vertex -0.00684873015 1.87184503e-06 -0.00290488242
  endloop
 endfacet

 facet normal 0 0 0
  outer loop
  vertex -0.00601226976 0.00331818545 -0.00840488262
  vertex -0.00684873015 1.87184503e-06 -0.00290488242
  vertex -0.00639297394 0.00248446269 0.00759511814
  endloop
 endfacet

 facet normal 0 0 0
  outer loop
  vertex 0.000151272805 0.00699993502 -0.00840488262
  vertex -0.00370440562 0.00584234437 -0.00840488262
  vertex -0.00152346061 0.00679664547 0.00759511814
  endloop
 endfacet

 facet normal 0 0 0
  outer loop
  vertex -0.00449425634 -0.00523638586 0.00759511814
  vertex 0.000651579991 -0.0100026075 0.00411306694
  vertex 0.000144893522 -0.00700260745 0.00759511814
  endloop
 endfacet

 facet normal 0 0 0
  outer loop
  vertex -0.00449425634 -0.00523638586 0.00759511814
  vertex -0.00639523147 -0.00247862935 0.00759511814
  vertex -0.00663710153 -0.00170827459 -0.00840488262
  endloop
 endfacet

 facet normal 0 0 0
  outer loop
  vertex -0.00449425634 -0.00523638586 0.00759511814
  vertex -0.00663710153 -0.00170827459 -0.00840488262
  vertex -0.00370763964 -0.00584033923 -0.00840488262
  endloop
 endfacet

 facet normal 0 0 0
  outer loop
  vertex -0.00370763964 -0.00584033923 -0.00840488262
  vertex 0.000651579991 -0.0100026075 -0.00317283161
  vertex 0.000651579991 -0.0100026075 0.00411306694
  endloop
 endfacet

 facet normal 0 0 0
  outer loop
  vertex -0.00370763964 -0.00584033923 -0.00840488262
  vertex 0.000651579991 -0.0100026075 0.00411306694
  vertex -0.00449425634 -0.00523638586 0.00759511814
  endloop
 endfacet

 facet normal 0 0 0
  outer loop
  vertex -0.00448948471 0.00524048647 0.00759511814
  vertex -0.00370440562 0.00584234437 -0.00840488262
  vertex -0.00601226976 0.00331818545 -0.00840488262
  endloop
 endfacet

 facet normal 0 0 0
  outer loop
  vertex -0.00448948471 0.00524048647 0.00759511814
  vertex -0.00601226976 0.00331818545 -0.00840488262
  vertex -0.00639297394 0.00248446269 0.00759511814
  endloop
 endfacet

 facet normal 0 0 0
  outer loop
  vertex -0.00448948471 0.00524048647 0.00759511814
  vertex -0.00152346061 0.00679664547 0.00759511814
  vertex -0.00370440562 0.00584234437 -0.00840488262
  endloop
 endfacet

 facet normal 0 0 0
  outer loop
  vertex 0.000147398634 -0.00700133527 -0.00840488262
  vertex 0.0310238022 -0.00638352055 -0.00840488262
  vertex 0.0276515819 -0.0100026075 -0.00317283161
  endloop
 endfacet

 facet normal 0 0 0
  outer loop
  vertex 0.000147398634 -0.00700133527 -0.00840488262
  vertex 0.0276515819 -0.0100026075 -0.00317283161
  vertex 0.000651579991 -0.0100026075 -0.00317283161
  endloop
 endfacet

 facet normal 0 0 0
  outer loop
  vertex 0.000147398634 -0.00700133527 -0.00840488262
  vertex 0.000651579991 -0.0100026075 -0.00317283161
  vertex -0.00370763964 -0.00584033923 -0.00840488262
  endloop
 endfacet

 facet normal 0 0 0
  outer loop
  vertex 0.000147398634 -0.00700133527 -0.00840488262
  vertex -0.00370763964 -0.00584033923 -0.00840488262
  vertex -0.00663710153 -0.00170827459 -0.00840488262
  endloop
 endfacet

 facet normal 0 0 0
  outer loop
  vertex 0.000147398634 -0.00700133527 -0.00840488262
  vertex -0.00663710153 -0.00170827459 -0.00840488262
  vertex -0.00601226976 0.00331818545 -0.00840488262
  endloop
 endfacet

 facet normal 0 0 0
  outer loop
  vertex 0.000147398634 -0.00700133527 -0.00840488262
  vertex -0.00601226976 0.00331818545 -0.00840488262
  vertex -0.00370440562 0.00584234437 -0.00840488262
  endloop
 endfacet

 facet normal 0 0 0
  outer loop
  vertex 0.000147398634 -0.00700133527 -0.00840488262
  vertex -0.00370440562 0.00584234437 -0.00840488262
  vertex 0.000151272805 0.00699993502 -0.00840488262
  endloop
 endfacet

 facet normal 0 0 0
  outer loop
  vertex 0.000147398634 -0.00700133527 -0.00840488262
  vertex 0.000151272805 0.00699993502 -0.00840488262
  vertex 0.0281512737 0.00699993083 -0.00840488262
  endloop
 endfacet

 facet normal 0 0 0
  outer loop
  vertex 0.000147398634 -0.00700133527 -0.00840488262
  vertex 0.0281512737 0.00699993083 -0.00840488262
  vertex 0.0328789055 0.0051622428 -0.00840488262
  endloop
 endfacet

 facet normal 0 0 0
  outer loop
  vertex 0.000147398634 -0.00700133527 -0.00840488262
  vertex 0.0328789055 0.0051622428 -0.00840488262
  vertex 0.0351242758 0.000614066317 -0.00840488262
  endloop
 endfacet

 facet normal 0 0 0
  outer loop
  vertex 0.000147398634 -0.00700133527 -0.00840488262
  vertex 0.0351242758 0.000614066317 -0.00840488262
  vertex 0.0345809199 -0.0027676532 -0.00840488262
  endloop
 endfacet

 facet normal 0 0 0
  outer loop
  vertex 0.000147398634 -0.00700133527 -0.00840488262
  vertex 0.0345809199 -0.0027676532 -0.00840488262
  vertex 0.0310238022 -0.00638352055 -0.00840488262
  endloop
 endfacet

endsolid AssimpScene
