solid AssimpScene
 facet normal 0 0 0
  outer loop
  vertex -0.0045096674 0.00467434572 0.0104451161
  vertex -0.00621928507 0.00152898883 0.0104451161
  vertex -0.0054353755 -0.00370776653 0.0104451161
  endloop
 endfacet

 facet normal 0 0 0
  outer loop
  vertex -0.0045096674 0.00467434572 0.0104451161
  vertex -0.0054353755 -0.00370776653 0.0104451161
  vertex -0.00120870606 -0.0068973382 0.0104451161
  endloop
 endfacet

 facet normal 0 0 0
  outer loop
  vertex -0.0045096674 0.00467434572 0.0104451161
  vertex -0.00120870606 -0.0068973382 0.0104451161
  vertex 0.0115812719 -0.00713106524 0.0104451161
  endloop
 endfacet

 facet normal 0 0 0
  outer loop
  vertex -0.0045096674 0.00467434572 0.0104451161
  vertex 0.0115812719 -0.00713106524 0.0104451161
  vertex 0.0115812719 0.0045831427 0.0104451161
  endloop
 endfacet

 facet normal 0 0 0
  outer loop
  vertex -0.0045096674 0.00467434572 0.0104451161
  vertex 0.0115812719 0.0045831427 0.0104451161
  vertex -0.00146850047 0.00656309817 0.0104451161
  endloop
 endfacet

 facet normal 0 0 0
  outer loop
  vertex -0.00621928507 0.00152898883 0.0104451161
  vertex -0.00641742582 -0.000265145267 -0.00925488211
  vertex -0.0054353755 -0.00370776653 0.0104451161
  endloop
 endfacet

 facet normal 0 0 0
  outer loop
  vertex 0.0368284062 -0.0101310648 0.00411306601
  vertex 0.0480812714 -0.00713106478 0.00364511739
  vertex 0.0402731821 -0.0070463568 0.0063451184
  endloop
 endfacet

 facet normal 0 0 0
  outer loop
  vertex 0.0368284062 -0.0101310648 0.00411306601
  vertex 0.0402731821 -0.0070463568 0.0063451184
  vertex 0.0115812719 -0.00713106524 0.0104451161
  endloop
 endfacet

 facet normal 0 0 0
  outer loop
  vertex 0.0368284062 -0.0101310648 0.00411306601
  vertex 0.0115812719 -0.00713106524 0.0104451161
  vertex -0.00120870606 -0.0068973382 0.0104451161
  endloop
 endfacet

 facet normal 0 0 0
  outer loop
  vertex 0.0368284062 -0.0101310648 0.00411306601
  vertex -0.00120870606 -0.0068973382 0.0104451161
  vertex 0.00682841009 -0.0101310648 0.00411306601
  endloop
 endfacet

 facet normal 0 0 0
  outer loop
  vertex -0.0045096674 0.00467434572 -0.00925488211
  vertex -0.00641742582 -0.000265145267 -0.00925488211
  vertex -0.00621928507 0.00152898883 0.0104451161
  endloop
 endfacet

 facet normal 0 0 0
  outer loop
  vertex -0.0045096674 0.00467434572 -0.00925488211
  vertex -0.00146850047 0.00656309817 0.0104451161
  vertex 0.000311160053 0.00686472142 -0.00925488211
  endloop
 endfacet

 facet normal 0 0 0
  outer loop
  vertex 0.0503812693 -0.000130064975 0.00234511774
  vertex 0.0480812714 -0.00713106478 0.00364511739
  vertex 0.0480812714 -0.00713106478 -0.00290488265
  endloop
 endfacet

 facet normal 0 0 0
  outer loop
  vertex 0.0503812693 -0.000130064975 0.00234511774
  vertex 0.0480812714 -0.00713106478 -0.00290488265
  vertex 0.0503812693 -0.000130064975 -0.00190488261
  endloop
 endfacet

 facet normal 0 0 0
  outer loop
  vertex 0.038081266 0.00486929389 -0.00665488234
  vertex 0.000311160053 0.00686472142 -0.00925488211
  vertex 0.0456497408 0.00466944696 -0.00190488261
  endloop
 endfacet

 facet normal 0 0 0
  outer loop
  vertex 0.038081266 0.00486929389 -0.00665488234
  vertex 0.0456497408 0.00466944696 -0.00190488261
  vertex 0.0473490395 0.00163770199 -0.0064048823
  endloop
 endfacet

 facet normal 0 0 0
  outer loop
  vertex 0.038081266 0.00486929389 -0.00665488234
  vertex 0.0473490395 0.00163770199 -0.0064048823
  vertex 0.000311160053 0.00686472142 -0.00925488211
  endloop
 endfacet

 facet normal 0 0 0
  outer loop
  vertex 0.038081266 0.00486929389 0.0063451184
  vertex 0.0465379767 0.00217963383 0.00559511688
  vertex 0.0484357737 0.00372892618 0.00234511774
  endloop
 endfacet

 facet normal 0 0 0
  outer loop
  vertex 0.038081266 0.00486929389 0.0063451184
  vertex 0.0484357737 0.00372892618 0.00234511774
  vertex 0.0456497408 0.00466944696 -0.00190488261
  endloop
 endfacet

 facet normal 0 0 0
  outer loop
  vertex 0.038081266 0.00486929389 0.0063451184
  vertex 0.0456497408 0.00466944696 -0.00190488261
  vertex 0.000311160053 0.00686472142 -0.00925488211
  endloop
 endfacet

 facet normal 0 0 0
  outer loop
  vertex 0.038081266 0.00486929389 0.0063451184
  vertex 0.000311160053 0.00686472142 -0.00925488211
  vertex -0.00146850047 0.00656309817 0.0104451161
  endloop
 endfacet

 facet normal 0 0 0
  outer loop
  vertex 0.00682841009 -0.0101310648 -0.00273981877
  vertex 0.00682841009 -0.0101310648 0.00411306601
  vertex -0.00120870606 -0.0068973382 0.0104451161
  endloop
 endfacet

 facet normal 0 0 0
  outer loop
  vertex 0.00682841009 -0.0101310648 -0.00273981877
  vertex -0.00120870606 -0.0068973382 0.0104451161
  vertex -0.00120870606 -0.0068973382 -0.00925488211
  endloop
 endfacet

 facet normal 0 0 0
  outer loop
  vertex -0.00432048552 -0.00512734242 -0.00925488211
  vertex -0.00120870606 -0.0068973382 -0.00925488211
  vertex -0.00120870606 -0.0068973382 0.0104451161
  endloop
 endfacet

 facet normal 0 0 0
  outer loop
  vertex -0.00432048552 -0.00512734242 -0.00925488211
  vertex -0.00120870606 -0.0068973382 0.0104451161
  vertex -0.0054353755 -0.00370776653 0.0104451161
  endloop
 endfacet

 facet normal 0 0 0
  outer loop
  vertex -0.00432048552 -0.00512734242 -0.00925488211
  vertex -0.0054353755 -0.00370776653 0.0104451161
  vertex -0.00641742582 -0.000265145267 -0.00925488211
  endloop
 endfacet

 facet normal 0 0 0
  outer loop
  vertex 0.0115812719 0.0045831427 0.0104451161
  vertex 0.0465379767 0.00217963383 0.00559511688
  vertex 0.038081266 0.00486929389 0.0063451184
  endloop
 endfacet

 facet normal 0 0 0
  outer loop
  vertex 0.0115812719 0.0045831427 0.0104451161
  vertex 0.038081266 0.00486929389 0.0063451184
  vertex -0.00146850047 0.00656309817 0.0104451161
  endloop
 endfacet

 facet normal 0 0 0
  outer loop
  vertex 0.0494805835 0.00266909972 -0.00190488261
  vertex 0.0473490395 0.00163770199 -0.0064048823
  vertex 0.0456497408 0.00466944696 -0.00190488261
  endloop
 endfacet

 facet normal 0 0 0
  outer loop
  vertex 0.0494805835 0.00266909972 -0.00190488261
  vertex 0.0456497408 0.00466944696 -0.00190488261
  vertex 0.0484357737 0.00372892618 0.00234511774
  endloop
 endfacet

 facet normal 0 0 0
  outer loop
  vertex 0.0494805835 0.00266909972 -0.00190488261
  vertex 0.0484357737 0.00372892618 0.00234511774
  vertex 0.0503812693 -0.000130064975 0.00234511774
  endloop
 endfacet

 facet normal 0 0 0
  outer loop
  vertex 0.0494805835 0.00266909972 -0.00190488261
  vertex 0.0503812693 -0.000130064975 0.00234511774
  vertex 0.0503812693 -0.000130064975 -0.00190488261
  endloop
 endfacet

 facet normal 0 0 0
  outer loop
  vertex 0.0494805835 0.00266909972 -0.00190488261
  vertex 0.0503812693 -0.000130064975 -0.00190488261
  vertex 0.0473490395 0.00163770199 -0.0064048823
  endloop
 endfacet

 facet normal 0 0 0
  outer loop
  vertex 0.0480812714 -0.000130064989 0.00559511688
  vertex 0.0480812714 -0.00713106478 0.00364511739
  vertex 0.0503812693 -0.000130064975 0.00234511774
  endloop
 endfacet

 facet normal 0 0 0
  outer loop
  vertex 0.0480812714 -0.000130064989 0.00559511688
  vertex 0.0503812693 -0.000130064975 0.00234511774
  vertex 0.0484357737 0.00372892618 0.00234511774
  endloop
 endfacet

 facet normal 0 0 0
  outer loop
  vertex 0.0480812714 -0.000130064989 0.00559511688
  vertex 0.0484357737 0.00372892618 0.00234511774
  vertex 0.0465379767 0.00217963383 0.00559511688
  endloop
 endfacet

 facet normal 0 0 0
  outer loop
  vertex 0.0480812714 -0.000130064989 0.00559511688
  vertex 0.0465379767 0.00217963383 0.00559511688
  vertex 0.0115812719 0.0045831427 0.0104451161
  endloop
 endfacet

 facet normal 0 0 0
  outer loop
  vertex 0.0480812714 -0.000130064989 0.00559511688
  vertex 0.0115812719 0.0045831427 0.0104451161
  vertex 0.0115812719 -0.00713106524 0.0104451161
  endloop
 endfacet

 facet normal 0 0 0
  outer loop
  vertex 0.0480812714 -0.000130064989 0.00559511688
  vertex 0.0115812719 -0.00713106524 0.0104451161
  vertex 0.0402731821 -0.0070463568 0.0063451184
  endloop
 endfacet

 facet normal 0 0 0
  outer loop
  vertex 0.0480812714 -0.000130064989 0.00559511688
  vertex 0.0402731821 -0.0070463568 0.0063451184
  vertex 0.0480812714 -0.00713106478 0.00364511739
  endloop
 endfacet

 facet normal 0 0 0
  outer loop
  vertex 0.0368284062 -0.0101310648 -0.00273981877
  vertex 0.0368284062 -0.0101310648 0.00411306601
  vertex 0.00682841009 -0.0101310648 0.00411306601
  endloop
 endfacet

 facet normal 0 0 0
  outer loop
  vertex 0.0368284062 -0.0101310648 -0.00273981877
  vertex 0.00682841009 -0.0101310648 0.00411306601
  vertex 0.00682841009 -0.0101310648 -0.00273981877
  endloop
 endfacet

 facet normal 0 0 0
  outer loop
  vertex 0.0368284062 -0.0101310648 -0.00273981877
  vertex 0.0368284062 -0.00859239046 -0.0054048826
  vertex 0.0402855724 -0.00705089932 -0.00665488234
  endloop
 endfacet

 facet normal 0 0 0
  outer loop
  vertex 0.0368284062 -0.0101310648 -0.00273981877
  vertex 0.0402855724 -0.00705089932 -0.00665488234
  vertex 0.0480812714 -0.00713106478 -0.00290488265
  endloop
 endfacet

 facet normal 0 0 0
  outer loop
  vertex 0.0368284062 -0.0101310648 -0.00273981877
  vertex 0.0480812714 -0.00713106478 -0.00290488265
  vertex 0.0480812714 -0.00713106478 0.00364511739
  endloop
 endfacet

 facet normal 0 0 0
  outer loop
  vertex 0.0368284062 -0.0101310648 -0.00273981877
  vertex 0.0480812714 -0.00713106478 0.00364511739
  vertex 0.0368284062 -0.0101310648 0.00411306601
  endloop
 endfacet

 facet normal 0 0 0
  outer loop
  vertex 0.0478649847 -0.00137290335 -0.00630488247
  vertex 0.0480812714 -0.00713106478 -0.00290488265
  vertex 0.0402855724 -0.00705089932 -0.00665488234
  endloop
 endfacet

 facet normal 0 0 0
  outer loop
  vertex 0.0478649847 -0.00137290335 -0.00630488247
  vertex 0.0473490395 0.00163770199 -0.0064048823
  vertex 0.0503812693 -0.000130064975 -0.00190488261
  endloop
 endfacet

 facet normal 0 0 0
  outer loop
  vertex 0.0478649847 -0.00137290335 -0.00630488247
  vertex 0.0503812693 -0.000130064975 -0.00190488261
  vertex 0.0480812714 -0.00713106478 -0.00290488265
  endloop
 endfacet

 facet normal 0 0 0
  outer loop
  vertex -0.0045096674 0.00467434572 0.0104451161
  vertex -0.00146850047 0.00656309817 0.0104451161
  vertex -0.0045096674 0.00467434572 -0.00925488211
  endloop
 endfacet

 facet normal 0 0 0
  outer loop
  vertex -0.0045096674 0.00467434572 0.0104451161
  vertex -0.0045096674 0.00467434572 -0.00925488211
  vertex -0.00621928507 0.00152898883 0.0104451161
  endloop
 endfacet

 facet normal 0 0 0
  outer loop
  vertex 0.0115812719 -0.00713106524 -0.00925488211
  vertex 0.0473490395 0.00163770199 -0.0064048823
  vertex 0.0478649847 -0.00137290335 -0.00630488247
  endloop
 endfacet

 facet normal 0 0 0
  outer loop
  vertex 0.0115812719 -0.00713106524 -0.00925488211
  vertex 0.0478649847 -0.00137290335 -0.00630488247
  vertex 0.0402855724 -0.00705089932 -0.00665488234
  endloop
 endfacet

 facet normal 0 0 0
  outer loop
  vertex 0.0115812719 -0.00713106524 -0.00925488211
  vertex 0.0402855724 -0.00705089932 -0.00665488234
  vertex 0.0368284062 -0.00859239046 -0.0054048826
  endloop
 endfacet

 facet normal 0 0 0
  outer loop
  vertex 0.0115812719 -0.00713106524 -0.00925488211
  vertex 0.0368284062 -0.00859239046 -0.0054048826
  vertex 0.0368284062 -0.0101310648 -0.00273981877
  endloop
 endfacet

 facet normal 0 0 0
  outer loop
  vertex 0.0368284062 -0.0101310648 -0.00273981877
  vertex 0.00682841009 -0.0101310648 -0.00273981877
  vertex -0.00120870606 -0.0068973382 -0.00925488211
  endloop
 endfacet

 facet normal 0 0 0
  outer loop
  vertex 0.0368284062 -0.0101310648 -0.00273981877
  vertex -0.00120870606 -0.0068973382 -0.00925488211
  vertex 0.0115812719 -0.00713106524 -0.00925488211
  endloop
 endfacet

 facet normal 0 0 0
  outer loop
  vertex 0.0115812719 -0.00713106524 -0.00925488211
  vertex -0.00120870606 -0.0068973382 -0.00925488211
  vertex -0.00432048552 -0.00512734242 -0.00925488211
  endloop
 endfacet

 facet normal 0 0 0
  outer loop
  vertex 0.0115812719 -0.00713106524 -0.00925488211
  vertex -0.00432048552 -0.00512734242 -0.00925488211
  vertex -0.00641742582 -0.000265145267 -0.00925488211
  endloop
 endfacet

 facet normal 0 0 0
  outer loop
  vertex 0.0115812719 -0.00713106524 -0.00925488211
  vertex -0.00641742582 -0.000265145267 -0.00925488211
  vertex -0.0045096674 0.00467434572 -0.00925488211
  endloop
 endfacet

 facet normal 0 0 0
  outer loop
  vertex 0.0115812719 -0.00713106524 -0.00925488211
  vertex -0.0045096674 0.00467434572 -0.00925488211
  vertex 0.000311160053 0.00686472142 -0.00925488211
  endloop
 endfacet

 facet normal 0 0 0
  outer loop
  vertex 0.0115812719 -0.00713106524 -0.00925488211
  vertex 0.000311160053 0.00686472142 -0.00925488211
  vertex 0.0473490395 0.00163770199 -0.0064048823
  endloop
 endfacet

endsolid AssimpScene
