solid AssimpScene
 facet normal 0 0 0
  outer loop
  vertex 0.01289644 -0.00479251938 0.00599510921
  vertex 0.01289644 0.00480748015 0.00599510921
  vertex 0.000171199936 0.00278248033 0.00949510932
  endloop
 endfacet

 facet normal 0 0 0
  outer loop
  vertex 0.01289644 -0.00479251938 0.00599510921
  vertex 0.000171199936 0.00278248033 0.00949510932
  vertex 0.00107224053 -0.00261716219 0.00949510932
  endloop
 endfacet

 facet normal 0 0 0
  outer loop
  vertex -0.000285550457 -0.00272967247 -0.0115048904
  vertex 0.012435575 -0.00884251948 -0.00425174646
  vertex -0.00142880029 -0.00479251938 -0.00608993508
  endloop
 endfacet

 facet normal 0 0 0
  outer loop
  vertex 0.01289644 -0.00479251938 0.00599510921
  vertex 0.00107224053 -0.00261716219 0.00949510932
  vertex 0.0147390775 -0.00864252076 0.000877486775
  endloop
 endfacet

 facet normal 0 0 0
  outer loop
  vertex -0.000285550457 0.00274463301 -0.0115048904
  vertex -0.000285550457 -0.00272967247 -0.0115048904
  vertex -0.00231937086 -0.00161969068 -0.0113048917
  endloop
 endfacet

 facet normal 0 0 0
  outer loop
  vertex -0.000285550457 0.00274463301 -0.0115048904
  vertex -0.00231937086 -0.00161969068 -0.0113048917
  vertex -0.0027936392 0.000253153848 -0.0113048917
  endloop
 endfacet

 facet normal 0 0 0
  outer loop
  vertex -0.00142880029 -0.00479251938 0.00599510921
  vertex 0.00107224053 -0.00261716219 0.00949510932
  vertex -0.00271276641 -0.000722839206 0.00929510966
  endloop
 endfacet

 facet normal 0 0 0
  outer loop
  vertex -0.00142880029 -0.00479251938 0.00599510921
  vertex 0.0147390775 -0.00864252076 0.000877486775
  vertex 0.00107224053 -0.00261716219 0.00949510932
  endloop
 endfacet

 facet normal 0 0 0
  outer loop
  vertex 0.0156437606 -0.00864252076 -0.00269502122
  vertex 0.0155572305 -0.00149251951 -0.00511901081
  vertex 0.0169747826 0.0027574806 -0.0033918093
  endloop
 endfacet

 facet normal 0 0 0
  outer loop
  vertex 0.0156437606 -0.00864252076 -0.00269502122
  vertex 0.0169747826 0.0027574806 -0.0033918093
  vertex 0.017386809 -0.00149251951 -0.00119569676
  endloop
 endfacet

 facet normal 0 0 0
  outer loop
  vertex 0.000171199936 0.00278248033 0.00949510932
  vertex -0.00271276641 -0.000722839206 0.00929510966
  vertex 0.00107224053 -0.00261716219 0.00949510932
  endloop
 endfacet

 facet normal 0 0 0
  outer loop
  vertex 0.000171199936 0.00278248033 0.00949510932
  vertex 0.01289644 0.00480748015 0.00599510921
  vertex 0.013357304 0.00835748017 0.00127187662
  endloop
 endfacet

 facet normal 0 0 0
  outer loop
  vertex 0.000171199936 0.00278248033 0.00949510932
  vertex 0.013357304 0.00835748017 0.00127187662
  vertex -0.00142880029 0.00480748015 0.00599510921
  endloop
 endfacet

 facet normal 0 0 0
  outer loop
  vertex -0.00243531028 0.0038519653 -0.00608993508
  vertex -0.000285550457 0.00274463301 -0.0115048904
  vertex -0.0027936392 0.000253153848 -0.0113048917
  endloop
 endfacet

 facet normal 0 0 0
  outer loop
  vertex -0.00243531028 0.0038519653 -0.00608993508
  vertex -0.0027936392 0.000253153848 -0.0113048917
  vertex -0.00382879982 6.10518055e-06 0.000110064102
  endloop
 endfacet

 facet normal 0 0 0
  outer loop
  vertex 0.0158861931 0.00815748051 -0.00124219712
  vertex 0.013357304 0.00835748017 0.00127187662
  vertex 0.01289644 0.00480748015 0.00599510921
  endloop
 endfacet

 facet normal 0 0 0
  outer loop
  vertex 0.0158861931 0.00815748051 -0.00124219712
  vertex 0.01289644 0.00480748015 0.00599510921
  vertex 0.0171592794 0.00480748015 -4.83410658e-05
  endloop
 endfacet

 facet normal 0 0 0
  outer loop
  vertex 0.00293672178 0.000236637803 -0.0115048904
  vertex -0.000285550457 0.00274463301 -0.0115048904
  vertex 0.0147390775 0.00815748051 -0.0038573565
  endloop
 endfacet

 facet normal 0 0 0
  outer loop
  vertex 0.00293672178 0.000236637803 -0.0115048904
  vertex 0.0147390775 0.00815748051 -0.0038573565
  vertex 0.0155572305 -0.00149251951 -0.00511901081
  endloop
 endfacet

 facet normal 0 0 0
  outer loop
  vertex 0.00293672178 0.000236637803 -0.0115048904
  vertex 0.0155572305 -0.00149251951 -0.00511901081
  vertex 0.0156437606 -0.00864252076 -0.00269502122
  endloop
 endfacet

 facet normal 0 0 0
  outer loop
  vertex 0.00293672178 0.000236637803 -0.0115048904
  vertex 0.0156437606 -0.00864252076 -0.00269502122
  vertex 0.012435575 -0.00884251948 -0.00425174646
  endloop
 endfacet

 facet normal 0 0 0
  outer loop
  vertex 0.00293672178 0.000236637803 -0.0115048904
  vertex 0.012435575 -0.00884251948 -0.00425174646
  vertex -0.000285550457 -0.00272967247 -0.0115048904
  endloop
 endfacet

 facet normal 0 0 0
  outer loop
  vertex 0.00293672178 0.000236637803 -0.0115048904
  vertex -0.000285550457 -0.00272967247 -0.0115048904
  vertex -0.000285550457 0.00274463301 -0.0115048904
  endloop
 endfacet

 facet normal 0 0 0
  outer loop
  vertex -0.00366829382 0.00138599786 0.00599510921
  vertex -0.00142880029 0.00480748015 0.00599510921
  vertex -0.00243531028 0.0038519653 -0.00608993508
  endloop
 endfacet

 facet normal 0 0 0
  outer loop
  vertex -0.00366829382 0.00138599786 0.00599510921
  vertex -0.00243531028 0.0038519653 -0.00608993508
  vertex -0.00382879982 6.10518055e-06 0.000110064102
  endloop
 endfacet

 facet normal 0 0 0
  outer loop
  vertex 0.010182119 0.00835748017 -0.00217729434
  vertex 0.0147390775 0.00815748051 -0.0038573565
  vertex -0.000285550457 0.00274463301 -0.0115048904
  endloop
 endfacet

 facet normal 0 0 0
  outer loop
  vertex 0.010182119 0.00835748017 -0.00217729434
  vertex -0.000285550457 0.00274463301 -0.0115048904
  vertex -0.00243531028 0.0038519653 -0.00608993508
  endloop
 endfacet

 facet normal 0 0 0
  outer loop
  vertex 0.010182119 0.00835748017 -0.00217729434
  vertex -0.00243531028 0.0038519653 -0.00608993508
  vertex -0.00142880029 0.00480748015 0.00599510921
  endloop
 endfacet

 facet normal 0 0 0
  outer loop
  vertex 0.010182119 0.00835748017 -0.00217729434
  vertex -0.00142880029 0.00480748015 0.00599510921
  vertex 0.013357304 0.00835748017 0.00127187662
  endloop
 endfacet

 facet normal 0 0 0
  outer loop
  vertex 0.010182119 0.00835748017 -0.00217729434
  vertex 0.013357304 0.00835748017 0.00127187662
  vertex 0.0158861931 0.00815748051 -0.00124219712
  endloop
 endfacet

 facet normal 0 0 0
  outer loop
  vertex 0.010182119 0.00835748017 -0.00217729434
  vertex 0.0158861931 0.00815748051 -0.00124219712
  vertex 0.0147390775 0.00815748051 -0.0038573565
  endloop
 endfacet

 facet normal 0 0 0
  outer loop
  vertex 0.0169747826 0.0027574806 -0.0033918093
  vertex 0.0147390775 0.00815748051 -0.0038573565
  vertex 0.0158861931 0.00815748051 -0.00124219712
  endloop
 endfacet

 facet normal 0 0 0
  outer loop
  vertex 0.0169747826 0.0027574806 -0.0033918093
  vertex 0.0158861931 0.00815748051 -0.00124219712
  vertex 0.0171592794 0.00480748015 -4.83410658e-05
  endloop
 endfacet

 facet normal 0 0 0
  outer loop
  vertex 0.0169747826 0.0027574806 -0.0033918093
  vertex 0.0171592794 0.00480748015 -4.83410658e-05
  vertex 0.017386809 -0.00149251951 -0.00119569676
  endloop
 endfacet

 facet normal 0 0 0
  outer loop
  vertex 0.0169747826 0.0027574806 -0.0033918093
  vertex 0.0155572305 -0.00149251951 -0.00511901081
  vertex 0.0147390775 0.00815748051 -0.0038573565
  endloop
 endfacet

 facet normal 0 0 0
  outer loop
  vertex 0.0166917276 -0.00479251938 0.000927870395
  vertex 0.017386809 -0.00149251951 -0.00119569676
  vertex 0.0171592794 0.00480748015 -4.83410658e-05
  endloop
 endfacet

 facet normal 0 0 0
  outer loop
  vertex 0.0171592794 0.00480748015 -4.83410658e-05
  vertex 0.01289644 0.00480748015 0.00599510921
  vertex 0.01289644 -0.00479251938 0.00599510921
  endloop
 endfacet

 facet normal 0 0 0
  outer loop
  vertex 0.0171592794 0.00480748015 -4.83410658e-05
  vertex 0.01289644 -0.00479251938 0.00599510921
  vertex 0.0166917276 -0.00479251938 0.000927870395
  endloop
 endfacet

 facet normal 0 0 0
  outer loop
  vertex 0.0166917276 -0.00479251938 0.000927870395
  vertex 0.01289644 -0.00479251938 0.00599510921
  vertex 0.0147390775 -0.00864252076 0.000877486775
  endloop
 endfacet

 facet normal 0 0 0
  outer loop
  vertex 0.0166917276 -0.00479251938 0.000927870395
  vertex 0.0147390775 -0.00864252076 0.000877486775
  vertex 0.0156437606 -0.00864252076 -0.00269502122
  endloop
 endfacet

 facet normal 0 0 0
  outer loop
  vertex 0.0166917276 -0.00479251938 0.000927870395
  vertex 0.0156437606 -0.00864252076 -0.00269502122
  vertex 0.017386809 -0.00149251951 -0.00119569676
  endloop
 endfacet

 facet normal 0 0 0
  outer loop
  vertex -0.00201757858 0.00202239305 0.00929510966
  vertex -0.00271276641 -0.000722839206 0.00929510966
  vertex 0.000171199936 0.00278248033 0.00949510932
  endloop
 endfacet

 facet normal 0 0 0
  outer loop
  vertex -0.00201757858 0.00202239305 0.00929510966
  vertex 0.000171199936 0.00278248033 0.00949510932
  vertex -0.00142880029 0.00480748015 0.00599510921
  endloop
 endfacet

 facet normal 0 0 0
  outer loop
  vertex -0.00201757858 0.00202239305 0.00929510966
  vertex -0.00142880029 0.00480748015 0.00599510921
  vertex -0.00366829382 0.00138599786 0.00599510921
  endloop
 endfacet

 facet normal 0 0 0
  outer loop
  vertex -0.00201757858 0.00202239305 0.00929510966
  vertex -0.00366829382 0.00138599786 0.00599510921
  vertex -0.00271276641 -0.000722839206 0.00929510966
  endloop
 endfacet

 facet normal 0 0 0
  outer loop
  vertex 0.0105523737 -0.00884251948 4.15199211e-05
  vertex 0.0147390775 -0.00864252076 0.000877486775
  vertex -0.00142880029 -0.00479251938 0.00599510921
  endloop
 endfacet

 facet normal 0 0 0
  outer loop
  vertex 0.0105523737 -0.00884251948 4.15199211e-05
  vertex -0.00142880029 -0.00479251938 0.00599510921
  vertex -0.00142880029 -0.00479251938 -0.00608993508
  endloop
 endfacet

 facet normal 0 0 0
  outer loop
  vertex 0.0105523737 -0.00884251948 4.15199211e-05
  vertex -0.00142880029 -0.00479251938 -0.00608993508
  vertex 0.012435575 -0.00884251948 -0.00425174646
  endloop
 endfacet

 facet normal 0 0 0
  outer loop
  vertex 0.0105523737 -0.00884251948 4.15199211e-05
  vertex 0.012435575 -0.00884251948 -0.00425174646
  vertex 0.0156437606 -0.00864252076 -0.00269502122
  endloop
 endfacet

 facet normal 0 0 0
  outer loop
  vertex 0.0105523737 -0.00884251948 4.15199211e-05
  vertex 0.0156437606 -0.00864252076 -0.00269502122
  vertex 0.0147390775 -0.00864252076 0.000877486775
  endloop
 endfacet

 facet normal 0 0 0
  outer loop
  vertex -0.0031953638 -0.00267580105 0.00599510921
  vertex -0.00142880029 -0.00479251938 0.00599510921
  vertex -0.00271276641 -0.000722839206 0.00929510966
  endloop
 endfacet

 facet normal 0 0 0
  outer loop
  vertex -0.0031953638 -0.00267580105 0.00599510921
  vertex -0.00271276641 -0.000722839206 0.00929510966
  vertex -0.00366829382 0.00138599786 0.00599510921
  endloop
 endfacet

 facet normal 0 0 0
  outer loop
  vertex -0.0031953638 -0.00267580105 0.00599510921
  vertex -0.00366829382 0.00138599786 0.00599510921
  vertex -0.00382879982 6.10518055e-06 0.000110064102
  endloop
 endfacet

 facet normal 0 0 0
  outer loop
  vertex -0.0028987485 -0.00320119923 -0.00608993508
  vertex -0.00382879982 6.10518055e-06 0.000110064102
  vertex -0.0027936392 0.000253153848 -0.0113048917
  endloop
 endfacet

 facet normal 0 0 0
  outer loop
  vertex -0.0028987485 -0.00320119923 -0.00608993508
  vertex -0.00142880029 -0.00479251938 -0.00608993508
  vertex -0.00142880029 -0.00479251938 0.00599510921
  endloop
 endfacet

 facet normal 0 0 0
  outer loop
  vertex -0.0028987485 -0.00320119923 -0.00608993508
  vertex -0.00142880029 -0.00479251938 0.00599510921
  vertex -0.0031953638 -0.00267580105 0.00599510921
  endloop
 endfacet

 facet normal 0 0 0
  outer loop
  vertex -0.0028987485 -0.00320119923 -0.00608993508
  vertex -0.0031953638 -0.00267580105 0.00599510921
  vertex -0.00382879982 6.10518055e-06 0.000110064102
  endloop
 endfacet

 facet normal 0 0 0
  outer loop
  vertex -0.00231937086 -0.00161969068 -0.0113048917
  vertex -0.000285550457 -0.00272967247 -0.0115048904
  vertex -0.00142880029 -0.00479251938 -0.00608993508
  endloop
 endfacet

 facet normal 0 0 0
  outer loop
  vertex -0.00231937086 -0.00161969068 -0.0113048917
  vertex -0.00142880029 -0.00479251938 -0.00608993508
  vertex -0.0028987485 -0.00320119923 -0.00608993508
  endloop
 endfacet

 facet normal 0 0 0
  outer loop
  vertex -0.00231937086 -0.00161969068 -0.0113048917
  vertex -0.0028987485 -0.00320119923 -0.00608993508
  vertex -0.0027936392 0.000253153848 -0.0113048917
  endloop
 endfacet

endsolid AssimpScene
