solid AssimpScene
 facet normal 0 0 0
  outer loop
  vertex -7.30615575e-05 -0.00713206269 -0.00290488242
  vertex 0.0043463516 -0.00706633134 -0.00840488262
  vertex 0.0309269316 -0.00710697146 -0.00840488262
  endloop
 endfacet

 facet normal 0 0 0
  outer loop
  vertex -7.30615575e-05 -0.00713206269 -0.00290488242
  vertex 0.0309269316 -0.00710697146 -0.00840488262
  vertex 0.0309269316 -0.00710697146 0.00759511814
  endloop
 endfacet

 facet normal 0 0 0
  outer loop
  vertex -7.30615575e-05 -0.00713206269 -0.00290488242
  vertex 0.0309269316 -0.00710697146 0.00759511814
  vertex 0.00458783749 -0.0071282899 0.00759511814
  endloop
 endfacet

 facet normal 0 0 0
  outer loop
  vertex -7.30615575e-05 -0.00713206269 -0.00290488242
  vertex 0.00458783749 -0.0071282899 0.00759511814
  vertex -7.30615575e-05 -0.00713206269 0.00209511793
  endloop
 endfacet

 facet normal 0 0 0
  outer loop
  vertex -0.00242865179 0.00072308362 0.00559511781
  vertex 0.00458783749 -0.0071282899 0.00759511814
  vertex 0.00741719594 0.00490808068 0.00759511814
  endloop
 endfacet

 facet normal 0 0 0
  outer loop
  vertex 0.0309240967 -0.00360697228 -0.00840488262
  vertex 0.0309240967 -0.00360697228 0.00759511814
  vertex 0.0309269316 -0.00710697146 0.00759511814
  endloop
 endfacet

 facet normal 0 0 0
  outer loop
  vertex 0.0309240967 -0.00360697228 -0.00840488262
  vertex 0.0309269316 -0.00710697146 0.00759511814
  vertex 0.0309269316 -0.00710697146 -0.00840488262
  endloop
 endfacet

 facet normal 0 0 0
  outer loop
  vertex -0.00399090629 0.00256388495 0.00209511793
  vertex -0.00482035847 0.000151810978 -0.00290488242
  vertex -0.00428251969 -0.00234154426 0.00209511793
  endloop
 endfacet

 facet normal 0 0 0
  outer loop
  vertex -0.00399090629 0.00256388495 0.00209511793
  vertex -0.00428251969 -0.00234154426 0.00209511793
  vertex -0.00242865179 0.00072308362 0.00559511781
  endloop
 endfacet

 facet normal 0 0 0
  outer loop
  vertex 0.011617953 0.00491096405 0.00759511814
  vertex 0.00741719594 0.00490808068 0.00759511814
  vertex 0.00458783749 -0.0071282899 0.00759511814
  endloop
 endfacet

 facet normal 0 0 0
  outer loop
  vertex 0.011617953 0.00491096405 0.00759511814
  vertex 0.00458783749 -0.0071282899 0.00759511814
  vertex 0.0309269316 -0.00710697146 0.00759511814
  endloop
 endfacet

 facet normal 0 0 0
  outer loop
  vertex 0.011617953 0.00491096405 0.00759511814
  vertex 0.0309269316 -0.00710697146 0.00759511814
  vertex 0.0309240967 -0.00360697228 0.00759511814
  endloop
 endfacet

 facet normal 0 0 0
  outer loop
  vertex 0.011617953 0.00491096405 0.00759511814
  vertex 0.0309240967 -0.00360697228 0.00759511814
  vertex 0.0309240967 -0.00360697228 -0.00840488262
  endloop
 endfacet

 facet normal 0 0 0
  outer loop
  vertex 0.011617953 0.00491096405 0.00759511814
  vertex 0.0309240967 -0.00360697228 -0.00840488262
  vertex 0.011617953 0.00491096405 -0.00840488262
  endloop
 endfacet

 facet normal 0 0 0
  outer loop
  vertex -0.00289697526 -0.00115840673 -0.00590488221
  vertex -0.00482035847 0.000151810978 -0.00290488242
  vertex -0.00199513999 0.00147535338 -0.0064048823
  endloop
 endfacet

 facet normal 0 0 0
  outer loop
  vertex -0.00289697526 -0.00115840673 -0.00590488221
  vertex -0.00199513999 0.00147535338 -0.0064048823
  vertex 0.0043463516 -0.00706633134 -0.00840488262
  endloop
 endfacet

 facet normal 0 0 0
  outer loop
  vertex 0.0043463516 -0.00706633134 -0.00840488262
  vertex -7.30615575e-05 -0.00713206269 -0.00290488242
  vertex -0.00428251969 -0.00234154426 -0.00290488242
  endloop
 endfacet

 facet normal 0 0 0
  outer loop
  vertex 0.0043463516 -0.00706633134 -0.00840488262
  vertex -0.00428251969 -0.00234154426 -0.00290488242
  vertex -0.00289697526 -0.00115840673 -0.00590488221
  endloop
 endfacet

 facet normal 0 0 0
  outer loop
  vertex 0.00750632538 0.00490814215 -0.00840488262
  vertex 0.011617953 0.00491096405 -0.00840488262
  vertex 0.0309240967 -0.00360697228 -0.00840488262
  endloop
 endfacet

 facet normal 0 0 0
  outer loop
  vertex 0.00750632538 0.00490814215 -0.00840488262
  vertex 0.0309240967 -0.00360697228 -0.00840488262
  vertex 0.0309269316 -0.00710697146 -0.00840488262
  endloop
 endfacet

 facet normal 0 0 0
  outer loop
  vertex 0.00750632538 0.00490814215 -0.00840488262
  vertex 0.0309269316 -0.00710697146 -0.00840488262
  vertex 0.0043463516 -0.00706633134 -0.00840488262
  endloop
 endfacet

 facet normal 0 0 0
  outer loop
  vertex 0.00750632538 0.00490814215 -0.00840488262
  vertex 0.0043463516 -0.00706633134 -0.00840488262
  vertex -0.00199513999 0.00147535338 -0.0064048823
  endloop
 endfacet

 facet normal 0 0 0
  outer loop
  vertex 0.00750632538 0.00490814215 -0.00840488262
  vertex -0.00199513999 0.00147535338 -0.0064048823
  vertex -0.00380292884 0.00272096158 -0.00290488242
  endloop
 endfacet

 facet normal 0 0 0
  outer loop
  vertex 0.00750632538 0.00490814215 -0.00840488262
  vertex -0.00380292884 0.00272096158 -0.00290488242
  vertex -0.0020333454 0.00419913512 -0.00190488261
  endloop
 endfacet

 facet normal 0 0 0
  outer loop
  vertex 0.00750632538 0.00490814215 -0.00840488262
  vertex -0.0020333454 0.00419913512 -0.00190488261
  vertex -0.0020333454 0.00419913512 0.00209511793
  endloop
 endfacet

 facet normal 0 0 0
  outer loop
  vertex 0.00750632538 0.00490814215 -0.00840488262
  vertex -0.0020333454 0.00419913512 0.00209511793
  vertex 0.00741719594 0.00490808068 0.00759511814
  endloop
 endfacet

 facet normal 0 0 0
  outer loop
  vertex 0.00750632538 0.00490814215 -0.00840488262
  vertex 0.00741719594 0.00490808068 0.00759511814
  vertex 0.011617953 0.00491096405 0.00759511814
  endloop
 endfacet

 facet normal 0 0 0
  outer loop
  vertex 0.00750632538 0.00490814215 -0.00840488262
  vertex 0.011617953 0.00491096405 0.00759511814
  vertex 0.011617953 0.00491096405 -0.00840488262
  endloop
 endfacet

 facet normal 0 0 0
  outer loop
  vertex -0.0020333454 0.00419913512 0.00209511793
  vertex -0.00399090629 0.00256388495 0.00209511793
  vertex -0.00242865179 0.00072308362 0.00559511781
  endloop
 endfacet

 facet normal 0 0 0
  outer loop
  vertex -0.0020333454 0.00419913512 0.00209511793
  vertex -0.00242865179 0.00072308362 0.00559511781
  vertex 0.00741719594 0.00490808068 0.00759511814
  endloop
 endfacet

 facet normal 0 0 0
  outer loop
  vertex -0.00428251969 -0.00234154426 -0.00290488242
  vertex -0.00482035847 0.000151810978 -0.00290488242
  vertex -0.00289697526 -0.00115840673 -0.00590488221
  endloop
 endfacet

 facet normal 0 0 0
  outer loop
  vertex -0.00428251969 -0.00234154426 -0.00290488242
  vertex -7.30615575e-05 -0.00713206269 -0.00290488242
  vertex -7.30615575e-05 -0.00713206269 0.00209511793
  endloop
 endfacet

 facet normal 0 0 0
  outer loop
  vertex -0.00428251969 -0.00234154426 -0.00290488242
  vertex -7.30615575e-05 -0.00713206269 0.00209511793
  vertex -0.00428251969 -0.00234154426 0.00209511793
  endloop
 endfacet

 facet normal 0 0 0
  outer loop
  vertex -0.00428251969 -0.00234154426 -0.00290488242
  vertex -0.00428251969 -0.00234154426 0.00209511793
  vertex -0.00482035847 0.000151810978 -0.00290488242
  endloop
 endfacet

 facet normal 0 0 0
  outer loop
  vertex -0.00380292884 0.00272096158 -0.00290488242
  vertex -0.00199513999 0.00147535338 -0.0064048823
  vertex -0.00482035847 0.000151810978 -0.00290488242
  endloop
 endfacet

 facet normal 0 0 0
  outer loop
  vertex -0.00380292884 0.00272096158 -0.00290488242
  vertex -0.00482035847 0.000151810978 -0.00290488242
  vertex -0.00399090629 0.00256388495 0.00209511793
  endloop
 endfacet

 facet normal 0 0 0
  outer loop
  vertex -0.00380292884 0.00272096158 -0.00290488242
  vertex -0.00399090629 0.00256388495 0.00209511793
  vertex -0.0020333454 0.00419913512 0.00209511793
  endloop
 endfacet

 facet normal 0 0 0
  outer loop
  vertex -0.00380292884 0.00272096158 -0.00290488242
  vertex -0.0020333454 0.00419913512 0.00209511793
  vertex -0.0020333454 0.00419913512 -0.00190488261
  endloop
 endfacet

 facet normal 0 0 0
  outer loop
  vertex -0.00237530051 -0.00206028717 0.00509511773
  vertex -0.00242865179 0.00072308362 0.00559511781
  vertex -0.00428251969 -0.00234154426 0.00209511793
  endloop
 endfacet

 facet normal 0 0 0
  outer loop
  vertex -0.00237530051 -0.00206028717 0.00509511773
  vertex -0.00428251969 -0.00234154426 0.00209511793
  vertex -7.30615575e-05 -0.00713206269 0.00209511793
  endloop
 endfacet

 facet normal 0 0 0
  outer loop
  vertex -0.00237530051 -0.00206028717 0.00509511773
  vertex -7.30615575e-05 -0.00713206269 0.00209511793
  vertex 0.00458783749 -0.0071282899 0.00759511814
  endloop
 endfacet

 facet normal 0 0 0
  outer loop
  vertex -0.00237530051 -0.00206028717 0.00509511773
  vertex 0.00458783749 -0.0071282899 0.00759511814
  vertex -0.00242865179 0.00072308362 0.00559511781
  endloop
 endfacet

endsolid AssimpScene
