solid AssimpScene
 facet normal 0 0 0
  outer loop
  vertex -0.00448948471 0.00511048641 0.00759511814
  vertex -0.00639297394 0.00235446286 0.00759511814
  vertex -0.00639523147 -0.00260862987 0.00759511814
  endloop
 endfacet

 facet normal 0 0 0
  outer loop
  vertex -0.00448948471 0.00511048641 0.00759511814
  vertex -0.00639523147 -0.00260862987 0.00759511814
  vertex -0.00449425634 -0.00536638638 0.00759511814
  endloop
 endfacet

 facet normal 0 0 0
  outer loop
  vertex -0.00448948471 0.00511048641 0.00759511814
  vertex -0.00449425634 -0.00536638638 0.00759511814
  vertex 0.000144893522 -0.00713260798 0.00759511814
  endloop
 endfacet

 facet normal 0 0 0
  outer loop
  vertex -0.00448948471 0.00511048641 0.00759511814
  vertex 0.000144893522 -0.00713260798 0.00759511814
  vertex 0.0293747988 -0.00702230539 0.00759511814
  endloop
 endfacet

 facet normal 0 0 0
  outer loop
  vertex -0.00448948471 0.00511048641 0.00759511814
  vertex 0.0293747988 -0.00702230539 0.00759511814
  vertex 0.0337084457 -0.00438656472 0.00759511814
  endloop
 endfacet

 facet normal 0 0 0
  outer loop
  vertex -0.00448948471 0.00511048641 0.00759511814
  vertex 0.0337084457 -0.00438656472 0.00759511814
  vertex 0.0351242796 0.00048406687 0.00759511814
  endloop
 endfacet

 facet normal 0 0 0
  outer loop
  vertex -0.00448948471 0.00511048641 0.00759511814
  vertex 0.0351242796 0.00048406687 0.00759511814
  vertex 0.0328789055 0.005032246 0.00759511814
  endloop
 endfacet

 facet normal 0 0 0
  outer loop
  vertex -0.00448948471 0.00511048641 0.00759511814
  vertex 0.0328789055 0.005032246 0.00759511814
  vertex 0.0298638213 0.00665721577 0.00759511814
  endloop
 endfacet

 facet normal 0 0 0
  outer loop
  vertex -0.00448948471 0.00511048641 0.00759511814
  vertex 0.0298638213 0.00665721577 0.00759511814
  vertex -0.00152346061 0.00666664587 0.00759511814
  endloop
 endfacet

 facet normal 0 0 0
  outer loop
  vertex 0.0298638213 0.00665721577 0.00759511814
  vertex 0.0281512737 0.00686993077 -0.00840488262
  vertex 0.000151272805 0.00686993543 -0.00840488262
  endloop
 endfacet

 facet normal 0 0 0
  outer loop
  vertex 0.0298638213 0.00665721577 0.00759511814
  vertex 0.000151272805 0.00686993543 -0.00840488262
  vertex -0.00152346061 0.00666664587 0.00759511814
  endloop
 endfacet

 facet normal 0 0 0
  outer loop
  vertex -0.00663710153 -0.00183827477 -0.00840488262
  vertex -0.00639523147 -0.00260862987 0.00759511814
  vertex -0.00684873015 -0.000128128158 -0.00290488242
  endloop
 endfacet

 facet normal 0 0 0
  outer loop
  vertex -0.00639297394 0.00235446286 0.00759511814
  vertex -0.00684873015 -0.000128128158 -0.00290488242
  vertex -0.00639523147 -0.00260862987 0.00759511814
  endloop
 endfacet

 facet normal 0 0 0
  outer loop
  vertex 0.0328789055 0.00503224274 -0.00840488262
  vertex 0.0281512737 0.00686993077 -0.00840488262
  vertex 0.0298638213 0.00665721577 0.00759511814
  endloop
 endfacet

 facet normal 0 0 0
  outer loop
  vertex 0.000651579991 -0.0101326071 -0.00317283161
  vertex 0.0276515819 -0.0101326071 -0.00317283161
  vertex 0.0276515819 -0.0101326071 0.00411306694
  endloop
 endfacet

 facet normal 0 0 0
  outer loop
  vertex 0.000651579991 -0.0101326071 -0.00317283161
  vertex 0.0276515819 -0.0101326071 0.00411306694
  vertex 0.000651579991 -0.0101326071 0.00411306694
  endloop
 endfacet

 facet normal 0 0 0
  outer loop
  vertex 0.000144893522 -0.00713260798 0.00759511814
  vertex 0.000651579991 -0.0101326071 0.00411306694
  vertex 0.0276515819 -0.0101326071 0.00411306694
  endloop
 endfacet

 facet normal 0 0 0
  outer loop
  vertex 0.000144893522 -0.00713260798 0.00759511814
  vertex 0.0276515819 -0.0101326071 0.00411306694
  vertex 0.0293747988 -0.00702230539 0.00759511814
  endloop
 endfacet

 facet normal 0 0 0
  outer loop
  vertex 0.0337084457 -0.00438656472 0.00759511814
  vertex 0.0293747988 -0.00702230539 0.00759511814
  vertex 0.0276515819 -0.0101326071 0.00411306694
  endloop
 endfacet

 facet normal 0 0 0
  outer loop
  vertex 0.0328789055 0.005032246 0.00759511814
  vertex 0.0351242796 0.00048406687 0.00759511814
  vertex 0.0351242758 0.000484066375 -0.00840488262
  endloop
 endfacet

 facet normal 0 0 0
  outer loop
  vertex 0.0328789055 0.005032246 0.00759511814
  vertex 0.0351242758 0.000484066375 -0.00840488262
  vertex 0.0328789055 0.00503224274 -0.00840488262
  endloop
 endfacet

 facet normal 0 0 0
  outer loop
  vertex 0.0328789055 0.005032246 0.00759511814
  vertex 0.0328789055 0.00503224274 -0.00840488262
  vertex 0.0298638213 0.00665721577 0.00759511814
  endloop
 endfacet

 facet normal 0 0 0
  outer loop
  vertex 0.033708442 -0.00438656285 -0.00840488262
  vertex 0.0351242758 0.000484066375 -0.00840488262
  vertex 0.0351242796 0.00048406687 0.00759511814
  endloop
 endfacet

 facet normal 0 0 0
  outer loop
  vertex 0.033708442 -0.00438656285 -0.00840488262
  vertex 0.0351242796 0.00048406687 0.00759511814
  vertex 0.0337084457 -0.00438656472 0.00759511814
  endloop
 endfacet

 facet normal 0 0 0
  outer loop
  vertex 0.033708442 -0.00438656285 -0.00840488262
  vertex 0.0337084457 -0.00438656472 0.00759511814
  vertex 0.0276515819 -0.0101326071 0.00411306694
  endloop
 endfacet

 facet normal 0 0 0
  outer loop
  vertex 0.033708442 -0.00438656285 -0.00840488262
  vertex 0.0276515819 -0.0101326071 0.00411306694
  vertex 0.0276515819 -0.0101326071 -0.00317283161
  endloop
 endfacet

 facet normal 0 0 0
  outer loop
  vertex 0.033708442 -0.00438656285 -0.00840488262
  vertex 0.0276515819 -0.0101326071 -0.00317283161
  vertex 0.0310238022 -0.00651352108 -0.00840488262
  endloop
 endfacet

 facet normal 0 0 0
  outer loop
  vertex -0.00601226976 0.00318818539 -0.00840488262
  vertex -0.00663710153 -0.00183827477 -0.00840488262
  vertex -0.00684873015 -0.000128128158 -0.00290488242
  endloop
 endfacet

 facet normal 0 0 0
  outer loop
  vertex -0.00601226976 0.00318818539 -0.00840488262
  vertex -0.00684873015 -0.000128128158 -0.00290488242
  vertex -0.00639297394 0.00235446286 0.00759511814
  endloop
 endfacet

 facet normal 0 0 0
  outer loop
  vertex 0.000151272805 0.00686993543 -0.00840488262
  vertex -0.00370440562 0.00571234431 -0.00840488262
  vertex -0.00152346061 0.00666664587 0.00759511814
  endloop
 endfacet

 facet normal 0 0 0
  outer loop
  vertex -0.00449425634 -0.00536638638 0.00759511814
  vertex 0.000651579991 -0.0101326071 0.00411306694
  vertex 0.000144893522 -0.00713260798 0.00759511814
  endloop
 endfacet

 facet normal 0 0 0
  outer loop
  vertex -0.00449425634 -0.00536638638 0.00759511814
  vertex -0.00639523147 -0.00260862987 0.00759511814
  vertex -0.00663710153 -0.00183827477 -0.00840488262
  endloop
 endfacet

 facet normal 0 0 0
  outer loop
  vertex -0.00449425634 -0.00536638638 0.00759511814
  vertex -0.00663710153 -0.00183827477 -0.00840488262
  vertex -0.00370763964 -0.00597033976 -0.00840488262
  endloop
 endfacet

 facet normal 0 0 0
  outer loop
  vertex -0.00370763964 -0.00597033976 -0.00840488262
  vertex 0.000651579991 -0.0101326071 -0.00317283161
  vertex 0.000651579991 -0.0101326071 0.00411306694
  endloop
 endfacet

 facet normal 0 0 0
  outer loop
  vertex -0.00370763964 -0.00597033976 -0.00840488262
  vertex 0.000651579991 -0.0101326071 0.00411306694
  vertex -0.00449425634 -0.00536638638 0.00759511814
  endloop
 endfacet

 facet normal 0 0 0
  outer loop
  vertex -0.00448948471 0.00511048641 0.00759511814
  vertex -0.00370440562 0.00571234431 -0.00840488262
  vertex -0.00601226976 0.00318818539 -0.00840488262
  endloop
 endfacet

 facet normal 0 0 0
  outer loop
  vertex -0.00448948471 0.00511048641 0.00759511814
  vertex -0.00601226976 0.00318818539 -0.00840488262
  vertex -0.00639297394 0.00235446286 0.00759511814
  endloop
 endfacet

 facet normal 0 0 0
  outer loop
  vertex -0.00448948471 0.00511048641 0.00759511814
  vertex -0.00152346061 0.00666664587 0.00759511814
  vertex -0.00370440562 0.00571234431 -0.00840488262
  endloop
 endfacet

 facet normal 0 0 0
  outer loop
  vertex 0.000147398634 -0.00713133626 -0.00840488262
  vertex 0.0310238022 -0.00651352108 -0.00840488262
  vertex 0.0276515819 -0.0101326071 -0.00317283161
  endloop
 endfacet

 facet normal 0 0 0
  outer loop
  vertex 0.000147398634 -0.00713133626 -0.00840488262
  vertex 0.0276515819 -0.0101326071 -0.00317283161
  vertex 0.000651579991 -0.0101326071 -0.00317283161
  endloop
 endfacet

 facet normal 0 0 0
  outer loop
  vertex 0.000147398634 -0.00713133626 -0.00840488262
  vertex 0.000651579991 -0.0101326071 -0.00317283161
  vertex -0.00370763964 -0.00597033976 -0.00840488262
  endloop
 endfacet

 facet normal 0 0 0
  outer loop
  vertex 0.000147398634 -0.00713133626 -0.00840488262
  vertex -0.00370763964 -0.00597033976 -0.00840488262
  vertex -0.00663710153 -0.00183827477 -0.00840488262
  endloop
 endfacet

 facet normal 0 0 0
  outer loop
  vertex 0.000147398634 -0.00713133626 -0.00840488262
  vertex -0.00663710153 -0.00183827477 -0.00840488262
  vertex -0.00601226976 0.00318818539 -0.00840488262
  endloop
 endfacet

 facet normal 0 0 0
  outer loop
  vertex 0.000147398634 -0.00713133626 -0.00840488262
  vertex -0.00601226976 0.00318818539 -0.00840488262
  vertex -0.00370440562 0.00571234431 -0.00840488262
  endloop
 endfacet

 facet normal 0 0 0
  outer loop
  vertex 0.000147398634 -0.00713133626 -0.00840488262
  vertex -0.00370440562 0.00571234431 -0.00840488262
  vertex 0.000151272805 0.00686993543 -0.00840488262
  endloop
 endfacet

 facet normal 0 0 0
  outer loop
  vertex 0.000147398634 -0.00713133626 -0.00840488262
  vertex 0.000151272805 0.00686993543 -0.00840488262
  vertex 0.0281512737 0.00686993077 -0.00840488262
  endloop
 endfacet

 facet normal 0 0 0
  outer loop
  vertex 0.000147398634 -0.00713133626 -0.00840488262
  vertex 0.0281512737 0.00686993077 -0.00840488262
  vertex 0.0328789055 0.00503224274 -0.00840488262
  endloop
 endfacet

 facet normal 0 0 0
  outer loop
  vertex 0.000147398634 -0.00713133626 -0.00840488262
  vertex 0.0328789055 0.00503224274 -0.00840488262
  vertex 0.0351242758 0.000484066375 -0.00840488262
  endloop
 endfacet

 facet normal 0 0 0
  outer loop
  vertex 0.000147398634 -0.00713133626 -0.00840488262
  vertex 0.0351242758 0.000484066375 -0.00840488262
  vertex 0.033708442 -0.00438656285 -0.00840488262
  endloop
 endfacet

 facet normal 0 0 0
  outer loop
  vertex 0.000147398634 -0.00713133626 -0.00840488262
  vertex 0.033708442 -0.00438656285 -0.00840488262
  vertex 0.0310238022 -0.00651352108 -0.00840488262
  endloop
 endfacet

endsolid AssimpScene
