solid AssimpScene
 facet normal 0 0 0
  outer loop
  vertex -0.00464075571 0.00524055166 0.00800000038
  vertex -0.00654424541 0.00248452788 0.00800000038
  vertex -0.00654650247 -0.00247856462 0.00800000038
  endloop
 endfacet

 facet normal 0 0 0
  outer loop
  vertex -0.00464075571 0.00524055166 0.00800000038
  vertex -0.00654650247 -0.00247856462 0.00800000038
  vertex -0.00464552781 -0.00523632159 0.00800000038
  endloop
 endfacet

 facet normal 0 0 0
  outer loop
  vertex -0.00464075571 0.00524055166 0.00800000038
  vertex -0.00464552781 -0.00523632159 0.00800000038
  vertex -6.37755875e-06 -0.00700254273 0.00800000038
  endloop
 endfacet

 facet normal 0 0 0
  outer loop
  vertex -0.00464075571 0.00524055166 0.00800000038
  vertex -6.37755875e-06 -0.00700254273 0.00800000038
  vertex 0.0292235278 -0.00689224107 0.00800000038
  endloop
 endfacet

 facet normal 0 0 0
  outer loop
  vertex -0.00464075571 0.00524055166 0.00800000038
  vertex 0.0292235278 -0.00689224107 0.00800000038
  vertex 0.0335571766 -0.00425649947 0.00800000038
  endloop
 endfacet

 facet normal 0 0 0
  outer loop
  vertex -0.00464075571 0.00524055166 0.00800000038
  vertex 0.0335571766 -0.00425649947 0.00800000038
  vertex 0.0349730067 0.000614131801 0.00800000038
  endloop
 endfacet

 facet normal 0 0 0
  outer loop
  vertex -0.00464075571 0.00524055166 0.00800000038
  vertex 0.0349730067 0.000614131801 0.00800000038
  vertex 0.0338469297 0.00384882232 0.00800000038
  endloop
 endfacet

 facet normal 0 0 0
  outer loop
  vertex -0.00464075571 0.00524055166 0.00800000038
  vertex 0.0338469297 0.00384882232 0.00800000038
  vertex 0.0297125485 0.00678728102 0.00800000038
  endloop
 endfacet

 facet normal 0 0 0
  outer loop
  vertex -0.00464075571 0.00524055166 0.00800000038
  vertex 0.0297125485 0.00678728102 0.00800000038
  vertex -0.00167473161 0.00679671112 0.00800000038
  endloop
 endfacet

 facet normal 0 0 0
  outer loop
  vertex 0.0297125485 0.00678728102 0.00800000038
  vertex 0.0280000009 0.00699999603 -0.00800000038
  vertex 1.74689097e-09 0.00700000022 -0.00800000038
  endloop
 endfacet

 facet normal 0 0 0
  outer loop
  vertex 0.0297125485 0.00678728102 0.00800000038
  vertex 1.74689097e-09 0.00700000022 -0.00800000038
  vertex -0.00167473161 0.00679671112 0.00800000038
  endloop
 endfacet

 facet normal 0 0 0
  outer loop
  vertex -0.00678837253 -0.00170820963 -0.00800000038
  vertex -0.00654650247 -0.00247856462 0.00800000038
  vertex -0.00700000068 1.93683672e-06 -0.00249999994
  endloop
 endfacet

 facet normal 0 0 0
  outer loop
  vertex -0.00654424541 0.00248452788 0.00800000038
  vertex -0.00700000068 1.93683672e-06 -0.00249999994
  vertex -0.00654650247 -0.00247856462 0.00800000038
  endloop
 endfacet

 facet normal 0 0 0
  outer loop
  vertex 0.0327276327 0.00516230799 -0.00800000038
  vertex 0.0280000009 0.00699999603 -0.00800000038
  vertex 0.0297125485 0.00678728102 0.00800000038
  endloop
 endfacet

 facet normal 0 0 0
  outer loop
  vertex 0.000500308874 -0.0100025423 -0.0027679489
  vertex 0.0275003091 -0.0100025423 -0.0027679489
  vertex 0.0275003091 -0.0100025423 0.00451794919
  endloop
 endfacet

 facet normal 0 0 0
  outer loop
  vertex 0.000500308874 -0.0100025423 -0.0027679489
  vertex 0.0275003091 -0.0100025423 0.00451794919
  vertex 0.000500308874 -0.0100025423 0.00451794919
  endloop
 endfacet

 facet normal 0 0 0
  outer loop
  vertex -6.37755875e-06 -0.00700254273 0.00800000038
  vertex 0.000500308874 -0.0100025423 0.00451794919
  vertex 0.0275003091 -0.0100025423 0.00451794919
  endloop
 endfacet

 facet normal 0 0 0
  outer loop
  vertex -6.37755875e-06 -0.00700254273 0.00800000038
  vertex 0.0275003091 -0.0100025423 0.00451794919
  vertex 0.0292235278 -0.00689224107 0.00800000038
  endloop
 endfacet

 facet normal 0 0 0
  outer loop
  vertex 0.0335571766 -0.00425649947 0.00800000038
  vertex 0.0292235278 -0.00689224107 0.00800000038
  vertex 0.0275003091 -0.0100025423 0.00451794919
  endloop
 endfacet

 facet normal 0 0 0
  outer loop
  vertex 0.0338469297 0.00384882232 0.00800000038
  vertex 0.0349730067 0.000614131801 0.00800000038
  vertex 0.034973003 0.000614131335 -0.00800000038
  endloop
 endfacet

 facet normal 0 0 0
  outer loop
  vertex 0.0338469297 0.00384882232 0.00800000038
  vertex 0.034973003 0.000614131335 -0.00800000038
  vertex 0.0327276327 0.00516230799 -0.00800000038
  endloop
 endfacet

 facet normal 0 0 0
  outer loop
  vertex 0.0338469297 0.00384882232 0.00800000038
  vertex 0.0327276327 0.00516230799 -0.00800000038
  vertex 0.0297125485 0.00678728102 0.00800000038
  endloop
 endfacet

 facet normal 0 0 0
  outer loop
  vertex 0.0335571729 -0.00425649714 -0.00800000038
  vertex 0.034973003 0.000614131335 -0.00800000038
  vertex 0.0349730067 0.000614131801 0.00800000038
  endloop
 endfacet

 facet normal 0 0 0
  outer loop
  vertex 0.0335571729 -0.00425649714 -0.00800000038
  vertex 0.0349730067 0.000614131801 0.00800000038
  vertex 0.0335571766 -0.00425649947 0.00800000038
  endloop
 endfacet

 facet normal 0 0 0
  outer loop
  vertex 0.0335571729 -0.00425649714 -0.00800000038
  vertex 0.0335571766 -0.00425649947 0.00800000038
  vertex 0.0275003091 -0.0100025423 0.00451794919
  endloop
 endfacet

 facet normal 0 0 0
  outer loop
  vertex 0.0335571729 -0.00425649714 -0.00800000038
  vertex 0.0275003091 -0.0100025423 0.00451794919
  vertex 0.0275003091 -0.0100025423 -0.0027679489
  endloop
 endfacet

 facet normal 0 0 0
  outer loop
  vertex 0.0335571729 -0.00425649714 -0.00800000038
  vertex 0.0275003091 -0.0100025423 -0.0027679489
  vertex 0.0308725312 -0.00638345629 -0.00800000038
  endloop
 endfacet

 facet normal 0 0 0
  outer loop
  vertex -0.00616354076 0.00331825064 -0.00800000038
  vertex -0.00678837253 -0.00170820963 -0.00800000038
  vertex -0.00700000068 1.93683672e-06 -0.00249999994
  endloop
 endfacet

 facet normal 0 0 0
  outer loop
  vertex -0.00616354076 0.00331825064 -0.00800000038
  vertex -0.00700000068 1.93683672e-06 -0.00249999994
  vertex -0.00654424541 0.00248452788 0.00800000038
  endloop
 endfacet

 facet normal 0 0 0
  outer loop
  vertex 1.74689097e-09 0.00700000022 -0.00800000038
  vertex -0.00385567686 0.00584240956 -0.00800000038
  vertex -0.00167473161 0.00679671112 0.00800000038
  endloop
 endfacet

 facet normal 0 0 0
  outer loop
  vertex -0.00464552781 -0.00523632159 0.00800000038
  vertex 0.000500308874 -0.0100025423 0.00451794919
  vertex -6.37755875e-06 -0.00700254273 0.00800000038
  endloop
 endfacet

 facet normal 0 0 0
  outer loop
  vertex -0.00464552781 -0.00523632159 0.00800000038
  vertex -0.00654650247 -0.00247856462 0.00800000038
  vertex -0.00678837253 -0.00170820963 -0.00800000038
  endloop
 endfacet

 facet normal 0 0 0
  outer loop
  vertex -0.00464552781 -0.00523632159 0.00800000038
  vertex -0.00678837253 -0.00170820963 -0.00800000038
  vertex -0.00385891041 -0.00584027497 -0.00800000038
  endloop
 endfacet

 facet normal 0 0 0
  outer loop
  vertex -0.00385891041 -0.00584027497 -0.00800000038
  vertex 0.000500308874 -0.0100025423 -0.0027679489
  vertex 0.000500308874 -0.0100025423 0.00451794919
  endloop
 endfacet

 facet normal 0 0 0
  outer loop
  vertex -0.00385891041 -0.00584027497 -0.00800000038
  vertex 0.000500308874 -0.0100025423 0.00451794919
  vertex -0.00464552781 -0.00523632159 0.00800000038
  endloop
 endfacet

 facet normal 0 0 0
  outer loop
  vertex -0.00464075571 0.00524055166 0.00800000038
  vertex -0.00385567686 0.00584240956 -0.00800000038
  vertex -0.00616354076 0.00331825064 -0.00800000038
  endloop
 endfacet

 facet normal 0 0 0
  outer loop
  vertex -0.00464075571 0.00524055166 0.00800000038
  vertex -0.00616354076 0.00331825064 -0.00800000038
  vertex -0.00654424541 0.00248452788 0.00800000038
  endloop
 endfacet

 facet normal 0 0 0
  outer loop
  vertex -0.00464075571 0.00524055166 0.00800000038
  vertex -0.00167473161 0.00679671112 0.00800000038
  vertex -0.00385567686 0.00584240956 -0.00800000038
  endloop
 endfacet

 facet normal 0 0 0
  outer loop
  vertex -3.872457e-06 -0.00700127147 -0.00800000038
  vertex 0.0308725312 -0.00638345629 -0.00800000038
  vertex 0.0275003091 -0.0100025423 -0.0027679489
  endloop
 endfacet

 facet normal 0 0 0
  outer loop
  vertex -3.872457e-06 -0.00700127147 -0.00800000038
  vertex 0.0275003091 -0.0100025423 -0.0027679489
  vertex 0.000500308874 -0.0100025423 -0.0027679489
  endloop
 endfacet

 facet normal 0 0 0
  outer loop
  vertex -3.872457e-06 -0.00700127147 -0.00800000038
  vertex 0.000500308874 -0.0100025423 -0.0027679489
  vertex -0.00385891041 -0.00584027497 -0.00800000038
  endloop
 endfacet

 facet normal 0 0 0
  outer loop
  vertex -3.872457e-06 -0.00700127147 -0.00800000038
  vertex -0.00385891041 -0.00584027497 -0.00800000038
  vertex -0.00678837253 -0.00170820963 -0.00800000038
  endloop
 endfacet

 facet normal 0 0 0
  outer loop
  vertex -3.872457e-06 -0.00700127147 -0.00800000038
  vertex -0.00678837253 -0.00170820963 -0.00800000038
  vertex -0.00616354076 0.00331825064 -0.00800000038
  endloop
 endfacet

 facet normal 0 0 0
  outer loop
  vertex -3.872457e-06 -0.00700127147 -0.00800000038
  vertex -0.00616354076 0.00331825064 -0.00800000038
  vertex -0.00385567686 0.00584240956 -0.00800000038
  endloop
 endfacet

 facet normal 0 0 0
  outer loop
  vertex -3.872457e-06 -0.00700127147 -0.00800000038
  vertex -0.00385567686 0.00584240956 -0.00800000038
  vertex 1.74689097e-09 0.00700000022 -0.00800000038
  endloop
 endfacet

 facet normal 0 0 0
  outer loop
  vertex -3.872457e-06 -0.00700127147 -0.00800000038
  vertex 1.74689097e-09 0.00700000022 -0.00800000038
  vertex 0.0280000009 0.00699999603 -0.00800000038
  endloop
 endfacet

 facet normal 0 0 0
  outer loop
  vertex -3.872457e-06 -0.00700127147 -0.00800000038
  vertex 0.0280000009 0.00699999603 -0.00800000038
  vertex 0.0327276327 0.00516230799 -0.00800000038
  endloop
 endfacet

 facet normal 0 0 0
  outer loop
  vertex -3.872457e-06 -0.00700127147 -0.00800000038
  vertex 0.0327276327 0.00516230799 -0.00800000038
  vertex 0.034973003 0.000614131335 -0.00800000038
  endloop
 endfacet

 facet normal 0 0 0
  outer loop
  vertex -3.872457e-06 -0.00700127147 -0.00800000038
  vertex 0.034973003 0.000614131335 -0.00800000038
  vertex 0.0335571729 -0.00425649714 -0.00800000038
  endloop
 endfacet

 facet normal 0 0 0
  outer loop
  vertex -3.872457e-06 -0.00700127147 -0.00800000038
  vertex 0.0335571729 -0.00425649714 -0.00800000038
  vertex 0.0308725312 -0.00638345629 -0.00800000038
  endloop
 endfacet

endsolid AssimpScene
