solid AssimpScene
 facet normal 0 0 0
  outer loop
  vertex -0.00509093842 0.00480441097 0.0108499983
  vertex -0.00680055609 0.00165905396 0.0108499983
  vertex -0.00601664651 -0.00357770151 0.0108499983
  endloop
 endfacet

 facet normal 0 0 0
  outer loop
  vertex -0.00509093842 0.00480441097 0.0108499983
  vertex -0.00601664651 -0.00357770151 0.0108499983
  vertex -0.00178997719 -0.00676727295 0.0108499983
  endloop
 endfacet

 facet normal 0 0 0
  outer loop
  vertex -0.00509093842 0.00480441097 0.0108499983
  vertex -0.00178997719 -0.00676727295 0.0108499983
  vertex 0.0110000009 -0.00700099953 0.0108499983
  endloop
 endfacet

 facet normal 0 0 0
  outer loop
  vertex -0.00509093842 0.00480441097 0.0108499983
  vertex 0.0110000009 -0.00700099953 0.0108499983
  vertex 0.0110000009 0.00471320795 0.0108499983
  endloop
 endfacet

 facet normal 0 0 0
  outer loop
  vertex -0.00509093842 0.00480441097 0.0108499983
  vertex 0.0110000009 0.00471320795 0.0108499983
  vertex -0.0020497716 0.00669316296 0.0108499983
  endloop
 endfacet

 facet normal 0 0 0
  outer loop
  vertex -0.00680055609 0.00165905396 0.0108499983
  vertex -0.00699869683 -0.000135080176 -0.00884999987
  vertex -0.00601664651 -0.00357770151 0.0108499983
  endloop
 endfacet

 facet normal 0 0 0
  outer loop
  vertex 0.0362471379 -0.010001 0.00451794825
  vertex 0.0474999994 -0.00700099953 0.00404999964
  vertex 0.0396919139 -0.00691629201 0.00675000064
  endloop
 endfacet

 facet normal 0 0 0
  outer loop
  vertex 0.0362471379 -0.010001 0.00451794825
  vertex 0.0396919139 -0.00691629201 0.00675000064
  vertex 0.0110000009 -0.00700099953 0.0108499983
  endloop
 endfacet

 facet normal 0 0 0
  outer loop
  vertex 0.0362471379 -0.010001 0.00451794825
  vertex 0.0110000009 -0.00700099953 0.0108499983
  vertex -0.00178997719 -0.00676727295 0.0108499983
  endloop
 endfacet

 facet normal 0 0 0
  outer loop
  vertex 0.0362471379 -0.010001 0.00451794825
  vertex -0.00178997719 -0.00676727295 0.0108499983
  vertex 0.00624713907 -0.010001 0.00451794825
  endloop
 endfacet

 facet normal 0 0 0
  outer loop
  vertex -0.00509093842 0.00480441097 -0.00884999987
  vertex -0.00699869683 -0.000135080176 -0.00884999987
  vertex -0.00680055609 0.00165905396 0.0108499983
  endloop
 endfacet

 facet normal 0 0 0
  outer loop
  vertex -0.00509093842 0.00480441097 -0.00884999987
  vertex -0.0020497716 0.00669316296 0.0108499983
  vertex -0.000270110962 0.00699478667 -0.00884999987
  endloop
 endfacet

 facet normal 0 0 0
  outer loop
  vertex 0.0374999978 0.00499935867 0.00675000064
  vertex 0.0465352796 0.00454784697 0.00275000022
  vertex 0.0450684689 0.00479951175 -0.00150000013
  endloop
 endfacet

 facet normal 0 0 0
  outer loop
  vertex 0.0374999978 0.00499935867 0.00675000064
  vertex 0.0450684689 0.00479951175 -0.00150000013
  vertex -0.000270110962 0.00699478667 -0.00884999987
  endloop
 endfacet

 facet normal 0 0 0
  outer loop
  vertex 0.0374999978 0.00499935867 0.00675000064
  vertex -0.000270110962 0.00699478667 -0.00884999987
  vertex -0.0020497716 0.00669316296 0.0108499983
  endloop
 endfacet

 facet normal 0 0 0
  outer loop
  vertex 0.0374999978 0.00499935867 -0.00625000009
  vertex -0.000270110962 0.00699478667 -0.00884999987
  vertex 0.0450684689 0.00479951175 -0.00150000013
  endloop
 endfacet

 facet normal 0 0 0
  outer loop
  vertex 0.0374999978 0.00499935867 -0.00625000009
  vertex 0.0467677675 0.00176776701 -0.00600000005
  vertex -0.000270110962 0.00699478667 -0.00884999987
  endloop
 endfacet

 facet normal 0 0 0
  outer loop
  vertex 0.00624713907 -0.010001 -0.00233493629
  vertex 0.00624713907 -0.010001 0.00451794825
  vertex -0.00178997719 -0.00676727295 0.0108499983
  endloop
 endfacet

 facet normal 0 0 0
  outer loop
  vertex 0.00624713907 -0.010001 -0.00233493629
  vertex -0.00178997719 -0.00676727295 0.0108499983
  vertex -0.00178997719 -0.00676727295 -0.00884999987
  endloop
 endfacet

 facet normal 0 0 0
  outer loop
  vertex -0.00490175653 -0.00499727717 -0.00884999987
  vertex -0.00178997719 -0.00676727295 -0.00884999987
  vertex -0.00178997719 -0.00676727295 0.0108499983
  endloop
 endfacet

 facet normal 0 0 0
  outer loop
  vertex -0.00490175653 -0.00499727717 -0.00884999987
  vertex -0.00178997719 -0.00676727295 0.0108499983
  vertex -0.00601664651 -0.00357770151 0.0108499983
  endloop
 endfacet

 facet normal 0 0 0
  outer loop
  vertex -0.00490175653 -0.00499727717 -0.00884999987
  vertex -0.00601664651 -0.00357770151 0.0108499983
  vertex -0.00699869683 -0.000135080176 -0.00884999987
  endloop
 endfacet

 facet normal 0 0 0
  outer loop
  vertex 0.0480000004 -1.38647357e-11 0.0054999995
  vertex 0.048899319 0.00279916474 0.00275000022
  vertex 0.0459567085 0.00230969884 0.00599999912
  endloop
 endfacet

 facet normal 0 0 0
  outer loop
  vertex 0.0480000004 -1.38647357e-11 0.0054999995
  vertex 0.0459567085 0.00230969884 0.00599999912
  vertex 0.0396919139 -0.00691629201 0.00675000064
  endloop
 endfacet

 facet normal 0 0 0
  outer loop
  vertex 0.0480000004 -1.38647357e-11 0.0054999995
  vertex 0.0396919139 -0.00691629201 0.00675000064
  vertex 0.0474999994 -0.00700099953 0.00404999964
  endloop
 endfacet

 facet normal 0 0 0
  outer loop
  vertex 0.0110000009 0.00471320795 0.0108499983
  vertex 0.0110000009 -0.00700099953 0.0108499983
  vertex 0.0396919139 -0.00691629201 0.00675000064
  endloop
 endfacet

 facet normal 0 0 0
  outer loop
  vertex 0.0110000009 0.00471320795 0.0108499983
  vertex 0.0396919139 -0.00691629201 0.00675000064
  vertex 0.0459567085 0.00230969884 0.00599999912
  endloop
 endfacet

 facet normal 0 0 0
  outer loop
  vertex 0.0110000009 0.00471320795 0.0108499983
  vertex 0.0459567085 0.00230969884 0.00599999912
  vertex 0.0374999978 0.00499935867 0.00675000064
  endloop
 endfacet

 facet normal 0 0 0
  outer loop
  vertex 0.0110000009 0.00471320795 0.0108499983
  vertex 0.0374999978 0.00499935867 0.00675000064
  vertex -0.0020497716 0.00669316296 0.0108499983
  endloop
 endfacet

 facet normal 0 0 0
  outer loop
  vertex 0.0478545018 0.00385899097 -0.00150000013
  vertex 0.048899319 0.00279916474 0.00275000022
  vertex 0.0498000011 -1.38647843e-11 -0.00150000013
  endloop
 endfacet

 facet normal 0 0 0
  outer loop
  vertex 0.0478545018 0.00385899097 -0.00150000013
  vertex 0.0498000011 -1.38647843e-11 -0.00150000013
  vertex 0.0467677675 0.00176776701 -0.00600000005
  endloop
 endfacet

 facet normal 0 0 0
  outer loop
  vertex 0.0467677675 0.00176776701 -0.00600000005
  vertex 0.0374999978 0.00499935867 -0.00625000009
  vertex 0.0450684689 0.00479951175 -0.00150000013
  endloop
 endfacet

 facet normal 0 0 0
  outer loop
  vertex 0.0467677675 0.00176776701 -0.00600000005
  vertex 0.0450684689 0.00479951175 -0.00150000013
  vertex 0.0478545018 0.00385899097 -0.00150000013
  endloop
 endfacet

 facet normal 0 0 0
  outer loop
  vertex 0.0362471379 -0.010001 -0.00233493629
  vertex 0.0362471379 -0.010001 0.00451794825
  vertex 0.00624713907 -0.010001 0.00451794825
  endloop
 endfacet

 facet normal 0 0 0
  outer loop
  vertex 0.0362471379 -0.010001 -0.00233493629
  vertex 0.00624713907 -0.010001 0.00451794825
  vertex 0.00624713907 -0.010001 -0.00233493629
  endloop
 endfacet

 facet normal 0 0 0
  outer loop
  vertex 0.0362471379 -0.010001 -0.00233493629
  vertex 0.0362471379 -0.00846232567 -0.00500000035
  vertex 0.0397043042 -0.00692083407 -0.00625000009
  endloop
 endfacet

 facet normal 0 0 0
  outer loop
  vertex 0.0362471379 -0.010001 -0.00233493629
  vertex 0.0397043042 -0.00692083407 -0.00625000009
  vertex 0.0474999994 -0.00700099953 -0.00250000018
  endloop
 endfacet

 facet normal 0 0 0
  outer loop
  vertex 0.0362471379 -0.010001 -0.00233493629
  vertex 0.0474999994 -0.00700099953 -0.00250000018
  vertex 0.0474999994 -0.00700099953 0.00404999964
  endloop
 endfacet

 facet normal 0 0 0
  outer loop
  vertex 0.0362471379 -0.010001 -0.00233493629
  vertex 0.0474999994 -0.00700099953 0.00404999964
  vertex 0.0362471379 -0.010001 0.00451794825
  endloop
 endfacet

 facet normal 0 0 0
  outer loop
  vertex 0.0498000011 -1.38647982e-11 0.00275000022
  vertex 0.048899319 0.00279916474 0.00275000022
  vertex 0.0480000004 -1.38647357e-11 0.0054999995
  endloop
 endfacet

 facet normal 0 0 0
  outer loop
  vertex 0.0498000011 -1.38647982e-11 0.00275000022
  vertex 0.0480000004 -1.38647357e-11 0.0054999995
  vertex 0.0474999994 -0.00700099953 0.00404999964
  endloop
 endfacet

 facet normal 0 0 0
  outer loop
  vertex 0.0498000011 -1.38647982e-11 0.00275000022
  vertex 0.0474999994 -0.00700099953 0.00404999964
  vertex 0.0474999994 -0.00700099953 -0.00250000018
  endloop
 endfacet

 facet normal 0 0 0
  outer loop
  vertex 0.0498000011 -1.38647982e-11 0.00275000022
  vertex 0.0474999994 -0.00700099953 -0.00250000018
  vertex 0.0498000011 -1.38647843e-11 -0.00150000013
  endloop
 endfacet

 facet normal 0 0 0
  outer loop
  vertex 0.0498000011 -1.38647982e-11 0.00275000022
  vertex 0.0498000011 -1.38647843e-11 -0.00150000013
  vertex 0.048899319 0.00279916474 0.00275000022
  endloop
 endfacet

 facet normal 0 0 0
  outer loop
  vertex 0.0472837165 -0.00124283833 -0.00590000022
  vertex 0.0474999994 -0.00700099953 -0.00250000018
  vertex 0.0397043042 -0.00692083407 -0.00625000009
  endloop
 endfacet

 facet normal 0 0 0
  outer loop
  vertex 0.0472837165 -0.00124283833 -0.00590000022
  vertex 0.0467677675 0.00176776701 -0.00600000005
  vertex 0.0498000011 -1.38647843e-11 -0.00150000013
  endloop
 endfacet

 facet normal 0 0 0
  outer loop
  vertex 0.0472837165 -0.00124283833 -0.00590000022
  vertex 0.0498000011 -1.38647843e-11 -0.00150000013
  vertex 0.0474999994 -0.00700099953 -0.00250000018
  endloop
 endfacet

 facet normal 0 0 0
  outer loop
  vertex 0.0465352796 0.00454784697 0.00275000022
  vertex 0.0374999978 0.00499935867 0.00675000064
  vertex 0.0459567085 0.00230969884 0.00599999912
  endloop
 endfacet

 facet normal 0 0 0
  outer loop
  vertex 0.0465352796 0.00454784697 0.00275000022
  vertex 0.0459567085 0.00230969884 0.00599999912
  vertex 0.048899319 0.00279916474 0.00275000022
  endloop
 endfacet

 facet normal 0 0 0
  outer loop
  vertex 0.0465352796 0.00454784697 0.00275000022
  vertex 0.048899319 0.00279916474 0.00275000022
  vertex 0.0478545018 0.00385899097 -0.00150000013
  endloop
 endfacet

 facet normal 0 0 0
  outer loop
  vertex 0.0465352796 0.00454784697 0.00275000022
  vertex 0.0478545018 0.00385899097 -0.00150000013
  vertex 0.0450684689 0.00479951175 -0.00150000013
  endloop
 endfacet

 facet normal 0 0 0
  outer loop
  vertex -0.00509093842 0.00480441097 0.0108499983
  vertex -0.0020497716 0.00669316296 0.0108499983
  vertex -0.00509093842 0.00480441097 -0.00884999987
  endloop
 endfacet

 facet normal 0 0 0
  outer loop
  vertex -0.00509093842 0.00480441097 0.0108499983
  vertex -0.00509093842 0.00480441097 -0.00884999987
  vertex -0.00680055609 0.00165905396 0.0108499983
  endloop
 endfacet

 facet normal 0 0 0
  outer loop
  vertex 0.0110000009 -0.00700099953 -0.00884999987
  vertex 0.0467677675 0.00176776701 -0.00600000005
  vertex 0.0472837165 -0.00124283833 -0.00590000022
  endloop
 endfacet

 facet normal 0 0 0
  outer loop
  vertex 0.0110000009 -0.00700099953 -0.00884999987
  vertex 0.0472837165 -0.00124283833 -0.00590000022
  vertex 0.0397043042 -0.00692083407 -0.00625000009
  endloop
 endfacet

 facet normal 0 0 0
  outer loop
  vertex 0.0110000009 -0.00700099953 -0.00884999987
  vertex 0.0397043042 -0.00692083407 -0.00625000009
  vertex 0.0362471379 -0.00846232567 -0.00500000035
  endloop
 endfacet

 facet normal 0 0 0
  outer loop
  vertex 0.0110000009 -0.00700099953 -0.00884999987
  vertex 0.0362471379 -0.00846232567 -0.00500000035
  vertex 0.0362471379 -0.010001 -0.00233493629
  endloop
 endfacet

 facet normal 0 0 0
  outer loop
  vertex 0.0362471379 -0.010001 -0.00233493629
  vertex 0.00624713907 -0.010001 -0.00233493629
  vertex -0.00178997719 -0.00676727295 -0.00884999987
  endloop
 endfacet

 facet normal 0 0 0
  outer loop
  vertex 0.0362471379 -0.010001 -0.00233493629
  vertex -0.00178997719 -0.00676727295 -0.00884999987
  vertex 0.0110000009 -0.00700099953 -0.00884999987
  endloop
 endfacet

 facet normal 0 0 0
  outer loop
  vertex 0.0110000009 -0.00700099953 -0.00884999987
  vertex -0.00178997719 -0.00676727295 -0.00884999987
  vertex -0.00490175653 -0.00499727717 -0.00884999987
  endloop
 endfacet

 facet normal 0 0 0
  outer loop
  vertex 0.0110000009 -0.00700099953 -0.00884999987
  vertex -0.00490175653 -0.00499727717 -0.00884999987
  vertex -0.00699869683 -0.000135080176 -0.00884999987
  endloop
 endfacet

 facet normal 0 0 0
  outer loop
  vertex 0.0110000009 -0.00700099953 -0.00884999987
  vertex -0.00699869683 -0.000135080176 -0.00884999987
  vertex -0.00509093842 0.00480441097 -0.00884999987
  endloop
 endfacet

 facet normal 0 0 0
  outer loop
  vertex 0.0110000009 -0.00700099953 -0.00884999987
  vertex -0.00509093842 0.00480441097 -0.00884999987
  vertex -0.000270110962 0.00699478667 -0.00884999987
  endloop
 endfacet

 facet normal 0 0 0
  outer loop
  vertex 0.0110000009 -0.00700099953 -0.00884999987
  vertex -0.000270110962 0.00699478667 -0.00884999987
  vertex 0.0467677675 0.00176776701 -0.00600000005
  endloop
 endfacet

endsolid AssimpScene
