solid AssimpScene
 facet normal 0 0 0
  outer loop
  vertex 0.0127252406 -0.00479999976 0.00604252238
  vertex 0.0127252406 0.00479999976 0.00604252238
  vertex 1.25210051e-10 0.00277499994 0.00954252202
  endloop
 endfacet

 facet normal 0 0 0
  outer loop
  vertex 0.0127252406 -0.00479999976 0.00604252238
  vertex 1.25210051e-10 0.00277499994 0.00954252202
  vertex 0.000901040738 -0.00262464257 0.00954252202
  endloop
 endfacet

 facet normal 0 0 0
  outer loop
  vertex -0.000456750276 -0.00273715286 -0.0114574786
  vertex 0.0122643746 -0.008849998 -0.00420433376
  vertex -0.00159999996 -0.00479999976 -0.00604252238
  endloop
 endfacet

 facet normal 0 0 0
  outer loop
  vertex 0.0127252406 -0.00479999976 0.00604252238
  vertex 0.000901040738 -0.00262464257 0.00954252202
  vertex 0.0145678781 -0.00864999928 0.000924899476
  endloop
 endfacet

 facet normal 0 0 0
  outer loop
  vertex -0.000456750276 0.00273715239 -0.0114574786
  vertex -0.000456750276 -0.00273715286 -0.0114574786
  vertex -0.00249057054 -0.00162717083 -0.011257478
  endloop
 endfacet

 facet normal 0 0 0
  outer loop
  vertex -0.000456750276 0.00273715239 -0.0114574786
  vertex -0.00249057054 -0.00162717083 -0.011257478
  vertex -0.00296483934 0.000245673611 -0.011257478
  endloop
 endfacet

 facet normal 0 0 0
  outer loop
  vertex -0.00159999996 -0.00479999976 0.00604252238
  vertex 0.000901040738 -0.00262464257 0.00954252202
  vertex -0.00288396608 -0.000730319414 0.00934252236
  endloop
 endfacet

 facet normal 0 0 0
  outer loop
  vertex -0.00159999996 -0.00479999976 0.00604252238
  vertex 0.0145678781 -0.00864999928 0.000924899476
  vertex 0.000901040738 -0.00262464257 0.00954252202
  endloop
 endfacet

 facet normal 0 0 0
  outer loop
  vertex 0.0154725602 -0.00864999928 -0.00264760852
  vertex 0.015386031 -0.00149999966 -0.00507159811
  vertex 0.0168035813 0.00274999975 -0.00334439659
  endloop
 endfacet

 facet normal 0 0 0
  outer loop
  vertex 0.0154725602 -0.00864999928 -0.00264760852
  vertex 0.0168035813 0.00274999975 -0.00334439659
  vertex 0.0172156096 -0.00149999966 -0.00114828395
  endloop
 endfacet

 facet normal 0 0 0
  outer loop
  vertex 1.25210051e-10 0.00277499994 0.00954252202
  vertex -0.00288396608 -0.000730319414 0.00934252236
  vertex 0.000901040738 -0.00262464257 0.00954252202
  endloop
 endfacet

 facet normal 0 0 0
  outer loop
  vertex 1.25210051e-10 0.00277499994 0.00954252202
  vertex 0.0127252406 0.00479999976 0.00604252238
  vertex 0.0131861055 0.00834999979 0.00131928956
  endloop
 endfacet

 facet normal 0 0 0
  outer loop
  vertex 1.25210051e-10 0.00277499994 0.00954252202
  vertex 0.0131861055 0.00834999979 0.00131928956
  vertex -0.00159999996 0.00479999976 0.00604252238
  endloop
 endfacet

 facet normal 0 0 0
  outer loop
  vertex -0.00260650995 0.00384448469 -0.00604252238
  vertex -0.000456750276 0.00273715239 -0.0114574786
  vertex -0.00296483934 0.000245673611 -0.011257478
  endloop
 endfacet

 facet normal 0 0 0
  outer loop
  vertex -0.00260650995 0.00384448469 -0.00604252238
  vertex -0.00296483934 0.000245673611 -0.011257478
  vertex -0.00399999972 -1.37508232e-06 0.000157476854
  endloop
 endfacet

 facet normal 0 0 0
  outer loop
  vertex 0.0157149937 0.00815000013 -0.00119478418
  vertex 0.0131861055 0.00834999979 0.00131928956
  vertex 0.0127252406 0.00479999976 0.00604252238
  endloop
 endfacet

 facet normal 0 0 0
  outer loop
  vertex 0.0157149937 0.00815000013 -0.00119478418
  vertex 0.0127252406 0.00479999976 0.00604252238
  vertex 0.01698808 0.00479999976 -9.28314876e-07
  endloop
 endfacet

 facet normal 0 0 0
  outer loop
  vertex 0.00276552234 0.000229157522 -0.0114574786
  vertex -0.000456750276 0.00273715239 -0.0114574786
  vertex 0.0145678781 0.00815000013 -0.0038099438
  endloop
 endfacet

 facet normal 0 0 0
  outer loop
  vertex 0.00276552234 0.000229157522 -0.0114574786
  vertex 0.0145678781 0.00815000013 -0.0038099438
  vertex 0.015386031 -0.00149999966 -0.00507159811
  endloop
 endfacet

 facet normal 0 0 0
  outer loop
  vertex 0.00276552234 0.000229157522 -0.0114574786
  vertex 0.015386031 -0.00149999966 -0.00507159811
  vertex 0.0154725602 -0.00864999928 -0.00264760852
  endloop
 endfacet

 facet normal 0 0 0
  outer loop
  vertex 0.00276552234 0.000229157522 -0.0114574786
  vertex 0.0154725602 -0.00864999928 -0.00264760852
  vertex 0.0122643746 -0.008849998 -0.00420433376
  endloop
 endfacet

 facet normal 0 0 0
  outer loop
  vertex 0.00276552234 0.000229157522 -0.0114574786
  vertex 0.0122643746 -0.008849998 -0.00420433376
  vertex -0.000456750276 -0.00273715286 -0.0114574786
  endloop
 endfacet

 facet normal 0 0 0
  outer loop
  vertex 0.00276552234 0.000229157522 -0.0114574786
  vertex -0.000456750276 -0.00273715286 -0.0114574786
  vertex -0.000456750276 0.00273715239 -0.0114574786
  endloop
 endfacet

 facet normal 0 0 0
  outer loop
  vertex -0.0038394935 0.00137851748 0.00604252238
  vertex -0.00159999996 0.00479999976 0.00604252238
  vertex -0.00260650995 0.00384448469 -0.00604252238
  endloop
 endfacet

 facet normal 0 0 0
  outer loop
  vertex -0.0038394935 0.00137851748 0.00604252238
  vertex -0.00260650995 0.00384448469 -0.00604252238
  vertex -0.00399999972 -1.37508232e-06 0.000157476854
  endloop
 endfacet

 facet normal 0 0 0
  outer loop
  vertex 0.0100109186 0.00834999979 -0.00212988164
  vertex 0.0145678781 0.00815000013 -0.0038099438
  vertex -0.000456750276 0.00273715239 -0.0114574786
  endloop
 endfacet

 facet normal 0 0 0
  outer loop
  vertex 0.0100109186 0.00834999979 -0.00212988164
  vertex -0.000456750276 0.00273715239 -0.0114574786
  vertex -0.00260650995 0.00384448469 -0.00604252238
  endloop
 endfacet

 facet normal 0 0 0
  outer loop
  vertex 0.0100109186 0.00834999979 -0.00212988164
  vertex -0.00260650995 0.00384448469 -0.00604252238
  vertex -0.00159999996 0.00479999976 0.00604252238
  endloop
 endfacet

 facet normal 0 0 0
  outer loop
  vertex 0.0100109186 0.00834999979 -0.00212988164
  vertex -0.00159999996 0.00479999976 0.00604252238
  vertex 0.0131861055 0.00834999979 0.00131928956
  endloop
 endfacet

 facet normal 0 0 0
  outer loop
  vertex 0.0100109186 0.00834999979 -0.00212988164
  vertex 0.0131861055 0.00834999979 0.00131928956
  vertex 0.0157149937 0.00815000013 -0.00119478418
  endloop
 endfacet

 facet normal 0 0 0
  outer loop
  vertex 0.0100109186 0.00834999979 -0.00212988164
  vertex 0.0157149937 0.00815000013 -0.00119478418
  vertex 0.0145678781 0.00815000013 -0.0038099438
  endloop
 endfacet

 facet normal 0 0 0
  outer loop
  vertex 0.0168035813 0.00274999975 -0.00334439659
  vertex 0.0145678781 0.00815000013 -0.0038099438
  vertex 0.0157149937 0.00815000013 -0.00119478418
  endloop
 endfacet

 facet normal 0 0 0
  outer loop
  vertex 0.0168035813 0.00274999975 -0.00334439659
  vertex 0.0157149937 0.00815000013 -0.00119478418
  vertex 0.01698808 0.00479999976 -9.28314876e-07
  endloop
 endfacet

 facet normal 0 0 0
  outer loop
  vertex 0.0168035813 0.00274999975 -0.00334439659
  vertex 0.01698808 0.00479999976 -9.28314876e-07
  vertex 0.0172156096 -0.00149999966 -0.00114828395
  endloop
 endfacet

 facet normal 0 0 0
  outer loop
  vertex 0.0168035813 0.00274999975 -0.00334439659
  vertex 0.015386031 -0.00149999966 -0.00507159811
  vertex 0.0145678781 0.00815000013 -0.0038099438
  endloop
 endfacet

 facet normal 0 0 0
  outer loop
  vertex 0.0165205281 -0.00479999976 0.000975283154
  vertex 0.0172156096 -0.00149999966 -0.00114828395
  vertex 0.01698808 0.00479999976 -9.28314876e-07
  endloop
 endfacet

 facet normal 0 0 0
  outer loop
  vertex 0.01698808 0.00479999976 -9.28314876e-07
  vertex 0.0127252406 0.00479999976 0.00604252238
  vertex 0.0127252406 -0.00479999976 0.00604252238
  endloop
 endfacet

 facet normal 0 0 0
  outer loop
  vertex 0.01698808 0.00479999976 -9.28314876e-07
  vertex 0.0127252406 -0.00479999976 0.00604252238
  vertex 0.0165205281 -0.00479999976 0.000975283154
  endloop
 endfacet

 facet normal 0 0 0
  outer loop
  vertex 0.0165205281 -0.00479999976 0.000975283154
  vertex 0.0127252406 -0.00479999976 0.00604252238
  vertex 0.0145678781 -0.00864999928 0.000924899476
  endloop
 endfacet

 facet normal 0 0 0
  outer loop
  vertex 0.0165205281 -0.00479999976 0.000975283154
  vertex 0.0145678781 -0.00864999928 0.000924899476
  vertex 0.0154725602 -0.00864999928 -0.00264760852
  endloop
 endfacet

 facet normal 0 0 0
  outer loop
  vertex 0.0165205281 -0.00479999976 0.000975283154
  vertex 0.0154725602 -0.00864999928 -0.00264760852
  vertex 0.0172156096 -0.00149999966 -0.00114828395
  endloop
 endfacet

 facet normal 0 0 0
  outer loop
  vertex -0.00218877825 0.00201491266 0.00934252236
  vertex -0.00288396608 -0.000730319414 0.00934252236
  vertex 1.25210051e-10 0.00277499994 0.00954252202
  endloop
 endfacet

 facet normal 0 0 0
  outer loop
  vertex -0.00218877825 0.00201491266 0.00934252236
  vertex 1.25210051e-10 0.00277499994 0.00954252202
  vertex -0.00159999996 0.00479999976 0.00604252238
  endloop
 endfacet

 facet normal 0 0 0
  outer loop
  vertex -0.00218877825 0.00201491266 0.00934252236
  vertex -0.00159999996 0.00479999976 0.00604252238
  vertex -0.0038394935 0.00137851748 0.00604252238
  endloop
 endfacet

 facet normal 0 0 0
  outer loop
  vertex -0.00218877825 0.00201491266 0.00934252236
  vertex -0.0038394935 0.00137851748 0.00604252238
  vertex -0.00288396608 -0.000730319414 0.00934252236
  endloop
 endfacet

 facet normal 0 0 0
  outer loop
  vertex 0.0103811733 -0.008849998 8.89326693e-05
  vertex 0.0145678781 -0.00864999928 0.000924899476
  vertex -0.00159999996 -0.00479999976 0.00604252238
  endloop
 endfacet

 facet normal 0 0 0
  outer loop
  vertex 0.0103811733 -0.008849998 8.89326693e-05
  vertex -0.00159999996 -0.00479999976 0.00604252238
  vertex -0.00159999996 -0.00479999976 -0.00604252238
  endloop
 endfacet

 facet normal 0 0 0
  outer loop
  vertex 0.0103811733 -0.008849998 8.89326693e-05
  vertex -0.00159999996 -0.00479999976 -0.00604252238
  vertex 0.0122643746 -0.008849998 -0.00420433376
  endloop
 endfacet

 facet normal 0 0 0
  outer loop
  vertex 0.0103811733 -0.008849998 8.89326693e-05
  vertex 0.0122643746 -0.008849998 -0.00420433376
  vertex 0.0154725602 -0.00864999928 -0.00264760852
  endloop
 endfacet

 facet normal 0 0 0
  outer loop
  vertex 0.0103811733 -0.008849998 8.89326693e-05
  vertex 0.0154725602 -0.00864999928 -0.00264760852
  vertex 0.0145678781 -0.00864999928 0.000924899476
  endloop
 endfacet

 facet normal 0 0 0
  outer loop
  vertex -0.00336656347 -0.00268328143 0.00604252238
  vertex -0.00159999996 -0.00479999976 0.00604252238
  vertex -0.00288396608 -0.000730319414 0.00934252236
  endloop
 endfacet

 facet normal 0 0 0
  outer loop
  vertex -0.00336656347 -0.00268328143 0.00604252238
  vertex -0.00288396608 -0.000730319414 0.00934252236
  vertex -0.0038394935 0.00137851748 0.00604252238
  endloop
 endfacet

 facet normal 0 0 0
  outer loop
  vertex -0.00336656347 -0.00268328143 0.00604252238
  vertex -0.0038394935 0.00137851748 0.00604252238
  vertex -0.00399999972 -1.37508232e-06 0.000157476854
  endloop
 endfacet

 facet normal 0 0 0
  outer loop
  vertex -0.00306994817 -0.00320867961 -0.00604252238
  vertex -0.00399999972 -1.37508232e-06 0.000157476854
  vertex -0.00296483934 0.000245673611 -0.011257478
  endloop
 endfacet

 facet normal 0 0 0
  outer loop
  vertex -0.00306994817 -0.00320867961 -0.00604252238
  vertex -0.00159999996 -0.00479999976 -0.00604252238
  vertex -0.00159999996 -0.00479999976 0.00604252238
  endloop
 endfacet

 facet normal 0 0 0
  outer loop
  vertex -0.00306994817 -0.00320867961 -0.00604252238
  vertex -0.00159999996 -0.00479999976 0.00604252238
  vertex -0.00336656347 -0.00268328143 0.00604252238
  endloop
 endfacet

 facet normal 0 0 0
  outer loop
  vertex -0.00306994817 -0.00320867961 -0.00604252238
  vertex -0.00336656347 -0.00268328143 0.00604252238
  vertex -0.00399999972 -1.37508232e-06 0.000157476854
  endloop
 endfacet

 facet normal 0 0 0
  outer loop
  vertex -0.00249057054 -0.00162717083 -0.011257478
  vertex -0.000456750276 -0.00273715286 -0.0114574786
  vertex -0.00159999996 -0.00479999976 -0.00604252238
  endloop
 endfacet

 facet normal 0 0 0
  outer loop
  vertex -0.00249057054 -0.00162717083 -0.011257478
  vertex -0.00159999996 -0.00479999976 -0.00604252238
  vertex -0.00306994817 -0.00320867961 -0.00604252238
  endloop
 endfacet

 facet normal 0 0 0
  outer loop
  vertex -0.00249057054 -0.00162717083 -0.011257478
  vertex -0.00306994817 -0.00320867961 -0.00604252238
  vertex -0.00296483934 0.000245673611 -0.011257478
  endloop
 endfacet

endsolid AssimpScene
