solid AssimpScene
 facet normal 0 0 0
  outer loop
  vertex 8.6169041e-07 -0.0070020007 -0.00249999994
  vertex 0.00442031911 -0.0069393022 -0.00800000038
  vertex 0.0310008619 -0.00699818507 -0.00800000038
  endloop
 endfacet

 facet normal 0 0 0
  outer loop
  vertex 8.6169041e-07 -0.0070020007 -0.00249999994
  vertex 0.0310008619 -0.00699818507 -0.00800000038
  vertex 0.0310008619 -0.00699818507 0.00800000038
  endloop
 endfacet

 facet normal 0 0 0
  outer loop
  vertex 8.6169041e-07 -0.0070020007 -0.00249999994
  vertex 0.0310008619 -0.00699818507 0.00800000038
  vertex 0.00466176216 -0.007001427 0.00800000038
  endloop
 endfacet

 facet normal 0 0 0
  outer loop
  vertex 8.6169041e-07 -0.0070020007 -0.00249999994
  vertex 0.00466176216 -0.007001427 0.00800000038
  vertex 8.6169041e-07 -0.0070020007 0.00250000041
  endloop
 endfacet

 facet normal 0 0 0
  outer loop
  vertex -0.00234933686 0.000854761282 0.00599999959
  vertex 0.00466176216 -0.007001427 0.00800000038
  vertex 0.0074993805 0.00503299991 0.00800000038
  endloop
 endfacet

 facet normal 0 0 0
  outer loop
  vertex 0.0310004316 -0.00349818519 -0.00800000038
  vertex 0.0310004316 -0.00349818519 0.00800000038
  vertex 0.0310008619 -0.00699818507 0.00800000038
  endloop
 endfacet

 facet normal 0 0 0
  outer loop
  vertex 0.0310004316 -0.00349818519 -0.00800000038
  vertex 0.0310008619 -0.00699818507 0.00800000038
  vertex 0.0310008619 -0.00699818507 -0.00800000038
  endloop
 endfacet

 facet normal 0 0 0
  outer loop
  vertex -0.0039103278 0.0026966345 0.00250000041
  vertex -0.00474143447 0.000285130169 -0.00249999994
  vertex -0.00420530746 -0.00220859377 0.00250000041
  endloop
 endfacet

 facet normal 0 0 0
  outer loop
  vertex -0.0039103278 0.0026966345 0.00250000041
  vertex -0.00420530746 -0.00220859377 0.00250000041
  vertex -0.00234933686 0.000854761282 0.00599999959
  endloop
 endfacet

 facet normal 0 0 0
  outer loop
  vertex 0.0117001384 0.00503299991 0.00800000038
  vertex 0.0074993805 0.00503299991 0.00800000038
  vertex 0.00466176216 -0.007001427 0.00800000038
  endloop
 endfacet

 facet normal 0 0 0
  outer loop
  vertex 0.0117001384 0.00503299991 0.00800000038
  vertex 0.00466176216 -0.007001427 0.00800000038
  vertex 0.0310008619 -0.00699818507 0.00800000038
  endloop
 endfacet

 facet normal 0 0 0
  outer loop
  vertex 0.0117001384 0.00503299991 0.00800000038
  vertex 0.0310008619 -0.00699818507 0.00800000038
  vertex 0.0310004316 -0.00349818519 0.00800000038
  endloop
 endfacet

 facet normal 0 0 0
  outer loop
  vertex 0.0117001384 0.00503299991 0.00800000038
  vertex 0.0310004316 -0.00349818519 0.00800000038
  vertex 0.0310004316 -0.00349818519 -0.00800000038
  endloop
 endfacet

 facet normal 0 0 0
  outer loop
  vertex 0.0117001384 0.00503299991 0.00800000038
  vertex 0.0310004316 -0.00349818519 -0.00800000038
  vertex 0.0117001384 0.00503299991 -0.00800000038
  endloop
 endfacet

 facet normal 0 0 0
  outer loop
  vertex -0.00281895162 -0.00102640735 -0.00549999997
  vertex -0.00474143447 0.000285130169 -0.00249999994
  vertex -0.001915309 0.00160673342 -0.00599999959
  endloop
 endfacet

 facet normal 0 0 0
  outer loop
  vertex -0.00281895162 -0.00102640735 -0.00549999997
  vertex -0.001915309 0.00160673342 -0.00599999959
  vertex 0.00442031911 -0.0069393022 -0.00800000038
  endloop
 endfacet

 facet normal 0 0 0
  outer loop
  vertex 0.00442031911 -0.0069393022 -0.00800000038
  vertex 8.6169041e-07 -0.0070020007 -0.00249999994
  vertex -0.00420530746 -0.00220859377 -0.00249999994
  endloop
 endfacet

 facet normal 0 0 0
  outer loop
  vertex 0.00442031911 -0.0069393022 -0.00800000038
  vertex -0.00420530746 -0.00220859377 -0.00249999994
  vertex -0.00281895162 -0.00102640735 -0.00549999997
  endloop
 endfacet

 facet normal 0 0 0
  outer loop
  vertex 0.00758851087 0.00503300084 -0.00800000038
  vertex 0.0117001384 0.00503299991 -0.00800000038
  vertex 0.0310004316 -0.00349818519 -0.00800000038
  endloop
 endfacet

 facet normal 0 0 0
  outer loop
  vertex 0.00758851087 0.00503300084 -0.00800000038
  vertex 0.0310004316 -0.00349818519 -0.00800000038
  vertex 0.0310008619 -0.00699818507 -0.00800000038
  endloop
 endfacet

 facet normal 0 0 0
  outer loop
  vertex 0.00758851087 0.00503300084 -0.00800000038
  vertex 0.0310008619 -0.00699818507 -0.00800000038
  vertex 0.00442031911 -0.0069393022 -0.00800000038
  endloop
 endfacet

 facet normal 0 0 0
  outer loop
  vertex 0.00758851087 0.00503300084 -0.00800000038
  vertex 0.00442031911 -0.0069393022 -0.00800000038
  vertex -0.001915309 0.00160673342 -0.00599999959
  endloop
 endfacet

 facet normal 0 0 0
  outer loop
  vertex 0.00758851087 0.00503300084 -0.00800000038
  vertex -0.001915309 0.00160673342 -0.00599999959
  vertex -0.00372224208 0.00285358191 -0.00249999994
  endloop
 endfacet

 facet normal 0 0 0
  outer loop
  vertex 0.00758851087 0.00503300084 -0.00800000038
  vertex -0.00372224208 0.00285358191 -0.00249999994
  vertex -0.00195164443 0.00433054054 -0.00150000025
  endloop
 endfacet

 facet normal 0 0 0
  outer loop
  vertex 0.00758851087 0.00503300084 -0.00800000038
  vertex -0.00195164443 0.00433054054 -0.00150000025
  vertex -0.00195164443 0.00433054054 0.00250000041
  endloop
 endfacet

 facet normal 0 0 0
  outer loop
  vertex 0.00758851087 0.00503300084 -0.00800000038
  vertex -0.00195164443 0.00433054054 0.00250000041
  vertex 0.0074993805 0.00503299991 0.00800000038
  endloop
 endfacet

 facet normal 0 0 0
  outer loop
  vertex 0.00758851087 0.00503300084 -0.00800000038
  vertex 0.0074993805 0.00503299991 0.00800000038
  vertex 0.0117001384 0.00503299991 0.00800000038
  endloop
 endfacet

 facet normal 0 0 0
  outer loop
  vertex 0.00758851087 0.00503300084 -0.00800000038
  vertex 0.0117001384 0.00503299991 0.00800000038
  vertex 0.0117001384 0.00503299991 -0.00800000038
  endloop
 endfacet

 facet normal 0 0 0
  outer loop
  vertex -0.00195164443 0.00433054054 0.00250000041
  vertex -0.0039103278 0.0026966345 0.00250000041
  vertex -0.00234933686 0.000854761282 0.00599999959
  endloop
 endfacet

 facet normal 0 0 0
  outer loop
  vertex -0.00195164443 0.00433054054 0.00250000041
  vertex -0.00234933686 0.000854761282 0.00599999959
  vertex 0.0074993805 0.00503299991 0.00800000038
  endloop
 endfacet

 facet normal 0 0 0
  outer loop
  vertex -0.00420530746 -0.00220859377 -0.00249999994
  vertex -0.00474143447 0.000285130169 -0.00249999994
  vertex -0.00281895162 -0.00102640735 -0.00549999997
  endloop
 endfacet

 facet normal 0 0 0
  outer loop
  vertex -0.00420530746 -0.00220859377 -0.00249999994
  vertex 8.6169041e-07 -0.0070020007 -0.00249999994
  vertex 8.6169041e-07 -0.0070020007 0.00250000041
  endloop
 endfacet

 facet normal 0 0 0
  outer loop
  vertex -0.00420530746 -0.00220859377 -0.00249999994
  vertex 8.6169041e-07 -0.0070020007 0.00250000041
  vertex -0.00420530746 -0.00220859377 0.00250000041
  endloop
 endfacet

 facet normal 0 0 0
  outer loop
  vertex -0.00420530746 -0.00220859377 -0.00249999994
  vertex -0.00420530746 -0.00220859377 0.00250000041
  vertex -0.00474143447 0.000285130169 -0.00249999994
  endloop
 endfacet

 facet normal 0 0 0
  outer loop
  vertex -0.00372224208 0.00285358191 -0.00249999994
  vertex -0.001915309 0.00160673342 -0.00599999959
  vertex -0.00474143447 0.000285130169 -0.00249999994
  endloop
 endfacet

 facet normal 0 0 0
  outer loop
  vertex -0.00372224208 0.00285358191 -0.00249999994
  vertex -0.00474143447 0.000285130169 -0.00249999994
  vertex -0.0039103278 0.0026966345 0.00250000041
  endloop
 endfacet

 facet normal 0 0 0
  outer loop
  vertex -0.00372224208 0.00285358191 -0.00249999994
  vertex -0.0039103278 0.0026966345 0.00250000041
  vertex -0.00195164443 0.00433054054 0.00250000041
  endloop
 endfacet

 facet normal 0 0 0
  outer loop
  vertex -0.00372224208 0.00285358191 -0.00249999994
  vertex -0.00195164443 0.00433054054 0.00250000041
  vertex -0.00195164443 0.00433054054 -0.00150000025
  endloop
 endfacet

 facet normal 0 0 0
  outer loop
  vertex -0.00229789619 -0.00192864565 0.00549999997
  vertex -0.00234933686 0.000854761282 0.00599999959
  vertex -0.00420530746 -0.00220859377 0.00250000041
  endloop
 endfacet

 facet normal 0 0 0
  outer loop
  vertex -0.00229789619 -0.00192864565 0.00549999997
  vertex -0.00420530746 -0.00220859377 0.00250000041
  vertex 8.6169041e-07 -0.0070020007 0.00250000041
  endloop
 endfacet

 facet normal 0 0 0
  outer loop
  vertex -0.00229789619 -0.00192864565 0.00549999997
  vertex 8.6169041e-07 -0.0070020007 0.00250000041
  vertex 0.00466176216 -0.007001427 0.00800000038
  endloop
 endfacet

 facet normal 0 0 0
  outer loop
  vertex -0.00229789619 -0.00192864565 0.00549999997
  vertex 0.00466176216 -0.007001427 0.00800000038
  vertex -0.00234933686 0.000854761282 0.00599999959
  endloop
 endfacet

endsolid AssimpScene
